<?xml version="1.0" encoding="utf-8"?>
<!-- Generator: Adobe Illustrator 22.1.0, SVG Export Plug-In . SVG Version: 6.00 Build 0)  -->
<svg version="1.1" id="Layer_1" xmlns="http://www.w3.org/2000/svg" xmlns:xlink="http://www.w3.org/1999/xlink" x="0px" y="0px"
	 viewBox="0 0 345.5 328.9" style="enable-background:new 0 0 345.5 328.9;" xml:space="preserve">
<style type="text/css">
	.st0{fill:#FFFFFF;}
</style>
<g>
	<g>
		<g>
			<g>
				<path class="st0" d="M3,2.3C2.7,3,2.9,3.9,3.6,4.3s1.7,0.2,2.1-0.6C6,3.2,6,2.7,5.8,2.3H3z"/>
			</g>
		</g>
		<g>
			<g>
				<path class="st0" d="M3,2.3c-0.2,0.4-0.2,1,0.1,1.4c0.4,0.7,1.4,1,2.1,0.6s1-1.3,0.6-2C5.8,2.3,3,2.3,3,2.3z"/>
			</g>
		</g>
		<g>
			<g>
				<path class="st0" d="M84.6,2.3c-0.3,0.7-0.1,1.6,0.6,2s1.7,0.2,2.1-0.6c0.3-0.5,0.3-1,0.1-1.4C87.4,2.3,84.6,2.3,84.6,2.3z"/>
			</g>
		</g>
		<g>
			<g>
				<path class="st0" d="M84.6,2.3c-0.2,0.4-0.2,1,0.1,1.4c0.4,0.7,1.4,1,2.1,0.6s1-1.3,0.6-2C87.4,2.3,84.6,2.3,84.6,2.3z"/>
			</g>
		</g>
		<g>
			<g>
				<path class="st0" d="M166.2,2.3c-0.3,0.7-0.1,1.6,0.6,2c0.7,0.4,1.7,0.2,2.1-0.6c0.3-0.5,0.3-1,0.1-1.4
					C169,2.3,166.2,2.3,166.2,2.3z"/>
			</g>
		</g>
		<g>
			<g>
				<path class="st0" d="M166.2,2.3c-0.2,0.4-0.2,1,0.1,1.4c0.4,0.7,1.4,1,2.1,0.6c0.7-0.4,1-1.3,0.6-2C169,2.3,166.2,2.3,166.2,2.3
					z"/>
			</g>
		</g>
		<g>
			<g>
				<path class="st0" d="M247.7,2.3c-0.3,0.7-0.1,1.6,0.6,2c0.7,0.4,1.7,0.2,2.1-0.6c0.3-0.5,0.3-1,0.1-1.4
					C250.5,2.3,247.7,2.3,247.7,2.3z"/>
			</g>
		</g>
		<g>
			<g>
				<path class="st0" d="M4.4,50.2c-0.1,0-0.2-0.1-0.2-0.2V2.9c0-0.1,0.1-0.2,0.2-0.2s0.2,0.1,0.2,0.2V50
					C4.6,50.1,4.5,50.2,4.4,50.2z"/>
			</g>
			<g>
				<path class="st0" d="M5.9,50c0,0.8-0.7,1.5-1.5,1.5S2.9,50.8,2.9,50s0.7-1.5,1.5-1.5S5.9,49.2,5.9,50z"/>
			</g>
			<g>
				<path class="st0" d="M3,2.3C2.9,2.5,2.9,2.7,2.9,2.9c0,0.8,0.7,1.5,1.5,1.5s1.5-0.7,1.5-1.5c0-0.2-0.1-0.5-0.2-0.7L3,2.3L3,2.3z
					"/>
			</g>
		</g>
		<g>
			<g>
				<path class="st0" d="M3,2.3C2.7,3,2.9,3.9,3.6,4.3s1.7,0.2,2.1-0.6C6,3.2,6,2.7,5.8,2.3H3z"/>
			</g>
		</g>
		<g>
			<g>
				<path class="st0" d="M4.4,50.2c-0.1,0-0.2-0.1-0.2-0.2V2.9c0-0.1,0.1-0.2,0.2-0.2s0.2,0.1,0.2,0.2V50
					C4.6,50.1,4.5,50.2,4.4,50.2z"/>
			</g>
			<g>
				<path class="st0" d="M5.9,50c0,0.8-0.7,1.5-1.5,1.5S2.9,50.9,2.9,50s0.7-1.5,1.5-1.5S5.9,49.2,5.9,50z"/>
			</g>
			<g>
				<path class="st0" d="M3,2.3C2.9,2.5,2.9,2.7,2.9,2.9c0,0.8,0.7,1.5,1.5,1.5s1.5-0.7,1.5-1.5c0-0.2-0.1-0.5-0.2-0.7L3,2.3L3,2.3z
					"/>
			</g>
		</g>
		<g>
			<g>
				<path class="st0" d="M45.2,73.8L45.2,73.8L4.3,50.2c-0.1-0.1-0.1-0.2-0.1-0.3c0.1-0.1,0.2-0.1,0.3-0.1l40.8,23.5
					c0.1,0.1,0.1,0.2,0.1,0.3C45.3,73.7,45.3,73.8,45.2,73.8z"/>
			</g>
			<g>
				<path class="st0" d="M3.6,51.4C2.9,51,2.6,50,3,49.3s1.4-1,2.1-0.6s1,1.4,0.6,2.1S4.4,51.8,3.6,51.4z"/>
			</g>
			<g>
				<path class="st0" d="M44.4,74.9c0.7,0.4,1.7,0.2,2.1-0.6s0.2-1.7-0.6-2.1c-0.7-0.4-1.7-0.2-2.1,0.6
					C43.4,73.5,43.7,74.5,44.4,74.9z"/>
			</g>
		</g>
		<g>
			<g>
				<path class="st0" d="M45.2,73.8c-0.1,0-0.1,0-0.2-0.1c-0.1-0.1,0-0.2,0.1-0.3l40.8-23.5c0.1-0.1,0.2,0,0.3,0.1
					c0.1,0.1,0,0.2-0.1,0.3L45.2,73.8L45.2,73.8z"/>
			</g>
			<g>
				<path class="st0" d="M46,74.9c-0.7,0.4-1.7,0.2-2.1-0.6c-0.4-0.7-0.2-1.7,0.6-2.1c0.7-0.4,1.7-0.2,2.1,0.6
					C46.9,73.5,46.7,74.5,46,74.9z"/>
			</g>
			<g>
				<path class="st0" d="M86.7,51.4c0.7-0.4,1-1.4,0.6-2.1c-0.4-0.7-1.4-1-2.1-0.6s-1,1.4-0.6,2.1C85.1,51.5,86,51.8,86.7,51.4z"/>
			</g>
		</g>
		<g>
			<g>
				<path class="st0" d="M86,50.2c-0.1,0-0.2-0.1-0.2-0.2V2.9c0-0.1,0.1-0.2,0.2-0.2s0.2,0.1,0.2,0.2V50
					C86.2,50.1,86.1,50.2,86,50.2z"/>
			</g>
			<g>
				<path class="st0" d="M87.5,50c0,0.8-0.7,1.5-1.5,1.5s-1.5-0.7-1.5-1.5s0.7-1.5,1.5-1.5S87.5,49.2,87.5,50z"/>
			</g>
			<g>
				<path class="st0" d="M84.6,2.3c-0.1,0.2-0.2,0.4-0.2,0.7c0,0.8,0.7,1.5,1.5,1.5c0.9,0,1.5-0.7,1.5-1.5c0-0.2-0.1-0.5-0.2-0.7
					H84.6z"/>
			</g>
		</g>
		<g>
			<g>
				<path class="st0" d="M84.6,2.3c-0.3,0.7-0.1,1.6,0.6,2s1.7,0.2,2.1-0.6c0.3-0.5,0.3-1,0.1-1.4C87.4,2.3,84.6,2.3,84.6,2.3z"/>
			</g>
		</g>
		<g>
			<g>
				<path class="st0" d="M3,2.3c-0.2,0.4-0.2,1,0.1,1.4c0.4,0.7,1.4,1,2.1,0.6s1-1.3,0.6-2C5.8,2.3,3,2.3,3,2.3z"/>
			</g>
		</g>
		<g>
			<g>
				<path class="st0" d="M86,50.2c-0.1,0-0.2-0.1-0.2-0.2V2.9c0-0.1,0.1-0.2,0.2-0.2s0.2,0.1,0.2,0.2V50
					C86.2,50.1,86.1,50.2,86,50.2z"/>
			</g>
			<g>
				<path class="st0" d="M87.5,50c0,0.8-0.7,1.5-1.5,1.5s-1.5-0.7-1.5-1.5s0.7-1.5,1.5-1.5S87.5,49.2,87.5,50z"/>
			</g>
			<g>
				<path class="st0" d="M84.6,2.3c-0.1,0.2-0.2,0.4-0.2,0.7c0,0.8,0.7,1.5,1.5,1.5s1.5-0.7,1.5-1.5c0-0.2-0.1-0.5-0.2-0.7H84.6z"/>
			</g>
		</g>
		<g>
			<g>
				<path class="st0" d="M126.7,73.8L126.7,73.8L85.9,50.2c-0.1-0.1-0.1-0.2-0.1-0.3c0.1-0.1,0.2-0.1,0.3-0.1l40.8,23.5
					c0.1,0.1,0.1,0.2,0.1,0.3C126.9,73.7,126.8,73.8,126.7,73.8z"/>
			</g>
			<g>
				<path class="st0" d="M85.2,51.4c-0.7-0.4-1-1.4-0.6-2.1c0.4-0.7,1.4-1,2.1-0.6s1,1.4,0.6,2.1C86.9,51.5,85.9,51.8,85.2,51.4z"/>
			</g>
			<g>
				<path class="st0" d="M126,74.9c0.7,0.4,1.7,0.2,2.1-0.6c0.4-0.7,0.2-1.7-0.6-2.1c-0.7-0.4-1.7-0.2-2.1,0.6
					C125,73.5,125.2,74.5,126,74.9z"/>
			</g>
		</g>
		<g>
			<g>
				<path class="st0" d="M126.7,73.8c-0.1,0-0.1,0-0.2-0.1s0-0.2,0.1-0.3l40.8-23.5c0.1-0.1,0.2,0,0.3,0.1s0,0.2-0.1,0.3L126.7,73.8
					C126.8,73.8,126.8,73.8,126.7,73.8z"/>
			</g>
			<g>
				<path class="st0" d="M127.5,74.9c-0.7,0.4-1.7,0.2-2.1-0.6c-0.4-0.7-0.2-1.7,0.6-2.1c0.7-0.4,1.7-0.2,2.1,0.6
					C128.5,73.5,128.3,74.5,127.5,74.9z"/>
			</g>
			<g>
				<path class="st0" d="M168.3,51.4c0.7-0.4,1-1.4,0.6-2.1c-0.4-0.7-1.4-1-2.1-0.6c-0.7,0.4-1,1.4-0.6,2.1
					C166.6,51.5,167.6,51.8,168.3,51.4z"/>
			</g>
		</g>
		<g>
			<g>
				<path class="st0" d="M167.5,50.2c-0.1,0-0.2-0.1-0.2-0.2V2.9c0-0.1,0.1-0.2,0.2-0.2c0.1,0,0.2,0.1,0.2,0.2V50
					C167.7,50.1,167.6,50.2,167.5,50.2z"/>
			</g>
			<g>
				<path class="st0" d="M169.1,50c0,0.8-0.7,1.5-1.5,1.5s-1.5-0.7-1.5-1.5s0.7-1.5,1.5-1.5C168.4,48.5,169.1,49.2,169.1,50z"/>
			</g>
			<g>
				<path class="st0" d="M166.2,2.3C166.1,2.5,166,2.7,166,3c0,0.8,0.7,1.5,1.5,1.5S169,3.8,169,3c0-0.2-0.1-0.5-0.2-0.7H166.2z"/>
			</g>
		</g>
		<g>
			<g>
				<path class="st0" d="M166.1,2.3c-0.3,0.7-0.1,1.6,0.6,2c0.7,0.4,1.7,0.2,2.1-0.6c0.3-0.5,0.3-1,0.1-1.4
					C168.9,2.3,166.1,2.3,166.1,2.3z"/>
			</g>
		</g>
		<g>
			<g>
				<path class="st0" d="M84.6,2.3c-0.2,0.4-0.2,1,0.1,1.4c0.4,0.7,1.4,1,2.1,0.6s1-1.3,0.6-2C87.4,2.3,84.6,2.3,84.6,2.3z"/>
			</g>
		</g>
		<g>
			<g>
				<path class="st0" d="M167.5,50.2c-0.1,0-0.2-0.1-0.2-0.2V2.9c0-0.1,0.1-0.2,0.2-0.2c0.1,0,0.2,0.1,0.2,0.2V50
					C167.7,50.1,167.6,50.2,167.5,50.2z"/>
			</g>
			<g>
				<path class="st0" d="M169.1,50c0,0.8-0.7,1.5-1.5,1.5c-0.9,0-1.5-0.7-1.5-1.5s0.7-1.5,1.5-1.5C168.4,48.5,169.1,49.2,169.1,50z"
					/>
			</g>
			<g>
				<path class="st0" d="M166.1,2.3C166,2.5,166,2.7,166,2.9c0,0.8,0.7,1.5,1.5,1.5c0.9,0,1.5-0.7,1.5-1.5c0-0.2-0.1-0.5-0.2-0.7
					L166.1,2.3L166.1,2.3z"/>
			</g>
		</g>
		<g>
			<g>
				<path class="st0" d="M208.3,73.8h-0.1l-40.8-23.5c-0.1-0.1-0.1-0.2-0.1-0.3c0.1-0.1,0.2-0.1,0.3-0.1l40.8,23.5
					c0.1,0.1,0.1,0.2,0.1,0.3C208.5,73.7,208.4,73.8,208.3,73.8z"/>
			</g>
			<g>
				<path class="st0" d="M166.8,51.4c-0.7-0.4-1-1.4-0.6-2.1c0.4-0.7,1.4-1,2.1-0.6c0.7,0.4,1,1.4,0.6,2.1
					C168.4,51.5,167.5,51.8,166.8,51.4z"/>
			</g>
			<g>
				<path class="st0" d="M207.5,74.9c0.7,0.4,1.7,0.2,2.1-0.6c0.4-0.7,0.2-1.7-0.6-2.1c-0.7-0.4-1.7-0.2-2.1,0.6
					C206.6,73.5,206.8,74.5,207.5,74.9z"/>
			</g>
		</g>
		<g>
			<g>
				<path class="st0" d="M208.3,73.8c-0.1,0-0.1,0-0.2-0.1c-0.1-0.1,0-0.2,0.1-0.3L249,49.9c0.1-0.1,0.2,0,0.3,0.1s0,0.2-0.1,0.3
					L208.3,73.8C208.4,73.8,208.4,73.8,208.3,73.8z"/>
			</g>
			<g>
				<path class="st0" d="M209.1,74.9c-0.7,0.4-1.7,0.2-2.1-0.6c-0.4-0.7-0.2-1.7,0.6-2.1c0.7-0.4,1.7-0.2,2.1,0.6
					C210.1,73.5,209.8,74.5,209.1,74.9z"/>
			</g>
			<g>
				<path class="st0" d="M249.9,51.4c0.7-0.4,1-1.4,0.6-2.1c-0.4-0.7-1.4-1-2.1-0.6c-0.7,0.4-1,1.4-0.6,2.1
					C248.2,51.5,249.1,51.8,249.9,51.4z"/>
			</g>
		</g>
		<g>
			<g>
				<path class="st0" d="M249.1,50.2c-0.1,0-0.2-0.1-0.2-0.2V2.9c0-0.1,0.1-0.2,0.2-0.2c0.1,0,0.2,0.1,0.2,0.2V50
					C249.3,50.1,249.2,50.2,249.1,50.2z"/>
			</g>
			<g>
				<path class="st0" d="M250.6,50c0,0.8-0.7,1.5-1.5,1.5s-1.5-0.7-1.5-1.5s0.7-1.5,1.5-1.5C250,48.5,250.6,49.2,250.6,50z"/>
			</g>
			<g>
				<path class="st0" d="M247.7,2.3c-0.1,0.2-0.2,0.4-0.2,0.7c0,0.8,0.7,1.5,1.5,1.5s1.5-0.7,1.5-1.5c0-0.2-0.1-0.5-0.2-0.7H247.7z"
					/>
			</g>
		</g>
		<g>
			<g>
				<path class="st0" d="M247.7,2.3c-0.3,0.7-0.1,1.6,0.6,2c0.7,0.4,1.7,0.2,2.1-0.6c0.3-0.5,0.3-1,0.1-1.4
					C250.5,2.3,247.7,2.3,247.7,2.3z"/>
			</g>
		</g>
		<g>
			<g>
				<path class="st0" d="M166.1,2.3c-0.2,0.4-0.2,1,0.1,1.4c0.4,0.7,1.4,1,2.1,0.6c0.7-0.4,1-1.3,0.6-2
					C168.9,2.3,166.1,2.3,166.1,2.3z"/>
			</g>
		</g>
		<g>
			<g>
				<path class="st0" d="M45.2,73.8L45.2,73.8L4.3,50.2c-0.1-0.1-0.1-0.2-0.1-0.3c0.1-0.1,0.2-0.1,0.3-0.1l40.8,23.5
					c0.1,0.1,0.1,0.2,0.1,0.3C45.3,73.7,45.3,73.8,45.2,73.8z"/>
			</g>
			<g>
				<path class="st0" d="M46,72.2c0.7,0.4,1,1.4,0.6,2.1s-1.4,1-2.1,0.6c-0.7-0.4-1-1.4-0.6-2.1C44.3,72.1,45.2,71.8,46,72.2z"/>
			</g>
			<g>
				<path class="st0" d="M5.2,48.7c-0.7-0.4-1.7-0.2-2.1,0.6C2.7,50,2.9,51,3.7,51.4c0.7,0.4,1.7,0.2,2.1-0.6
					C6.2,50.1,5.9,49.1,5.2,48.7z"/>
			</g>
		</g>
		<g>
			<g>
				<path class="st0" d="M86,144.4c-0.1,0-0.1,0-0.2-0.1s0-0.2,0.1-0.3l40.8-23.5c0.1-0.1,0.2,0,0.3,0.1c0.1,0.1,0,0.2-0.1,0.3
					l-40.8,23.5C86,144.4,86,144.4,86,144.4z"/>
			</g>
			<g>
				<path class="st0" d="M86.7,145.6c-0.7,0.4-1.7,0.2-2.1-0.6c-0.4-0.7-0.2-1.7,0.6-2.1c0.7-0.4,1.7-0.2,2.1,0.6
					C87.7,144.2,87.5,145.1,86.7,145.6z"/>
			</g>
			<g>
				<path class="st0" d="M127.5,122c0.7-0.4,1-1.4,0.6-2.1c-0.4-0.7-1.4-1-2.1-0.6s-1,1.4-0.6,2.1
					C125.9,122.2,126.8,122.4,127.5,122z"/>
			</g>
		</g>
		<g>
			<g>
				<path class="st0" d="M126.8,120.9c-0.1,0-0.2-0.1-0.2-0.2V73.6c0-0.1,0.1-0.2,0.2-0.2s0.2,0.1,0.2,0.2v47.1
					C127,120.8,126.9,120.9,126.8,120.9z"/>
			</g>
			<g>
				<path class="st0" d="M128.3,120.7c0,0.8-0.7,1.5-1.5,1.5s-1.5-0.7-1.5-1.5s0.7-1.5,1.5-1.5C127.6,119.1,128.3,119.8,128.3,120.7
					z"/>
			</g>
			<g>
				<path class="st0" d="M128.3,73.6c0-0.9-0.7-1.5-1.5-1.5c-0.9,0-1.5,0.7-1.5,1.5s0.7,1.5,1.5,1.5
					C127.6,75.1,128.3,74.4,128.3,73.6z"/>
			</g>
		</g>
		<g>
			<g>
				<path class="st0" d="M126.7,73.8L126.7,73.8L85.9,50.2c-0.1-0.1-0.1-0.2-0.1-0.3c0.1-0.1,0.2-0.1,0.3-0.1l40.8,23.5
					c0.1,0.1,0.1,0.2,0.1,0.3C126.9,73.7,126.8,73.8,126.7,73.8z"/>
			</g>
			<g>
				<path class="st0" d="M127.5,72.2c0.7,0.4,1,1.4,0.6,2.1c-0.4,0.7-1.4,1-2.1,0.6s-1-1.4-0.6-2.1
					C125.8,72.1,126.8,71.8,127.5,72.2z"/>
			</g>
			<g>
				<path class="st0" d="M86.7,48.7c-0.7-0.4-1.7-0.2-2.1,0.6c-0.4,0.7-0.2,1.7,0.6,2.1c0.7,0.4,1.7,0.2,2.1-0.6
					C87.7,50.1,87.5,49.1,86.7,48.7z"/>
			</g>
		</g>
		<g>
			<g>
				<path class="st0" d="M45.2,73.8c-0.1,0-0.1,0-0.2-0.1c-0.1-0.1,0-0.2,0.1-0.3l40.8-23.5c0.1-0.1,0.2,0,0.3,0.1
					c0.1,0.1,0,0.2-0.1,0.3L45.2,73.8L45.2,73.8z"/>
			</g>
			<g>
				<path class="st0" d="M85.2,48.7c0.7-0.4,1.7-0.2,2.1,0.6c0.4,0.7,0.2,1.7-0.6,2.1c-0.7,0.4-1.7,0.2-2.1-0.6
					C84.2,50.1,84.5,49.1,85.2,48.7z"/>
			</g>
			<g>
				<path class="st0" d="M44.4,72.2c-0.7,0.4-1,1.4-0.6,2.1s1.4,1,2.1,0.6c0.7-0.4,1-1.4,0.6-2.1S45.1,71.8,44.4,72.2z"/>
			</g>
		</g>
		<g>
			<g>
				<path class="st0" d="M126.7,120.9c-0.1,0-0.2-0.1-0.2-0.2V73.6c0-0.1,0.1-0.2,0.2-0.2s0.2,0.1,0.2,0.2v47.1
					C127,120.8,126.9,120.9,126.7,120.9z"/>
			</g>
			<g>
				<path class="st0" d="M128.3,120.7c0,0.8-0.7,1.5-1.5,1.5s-1.5-0.7-1.5-1.5s0.7-1.5,1.5-1.5S128.3,119.8,128.3,120.7z"/>
			</g>
			<g>
				<path class="st0" d="M128.3,73.6c0-0.8-0.7-1.5-1.5-1.5s-1.5,0.7-1.5,1.5s0.7,1.5,1.5,1.5S128.3,74.4,128.3,73.6z"/>
			</g>
		</g>
		<g>
			<g>
				<path class="st0" d="M167.5,144.4h-0.1l-40.8-23.5c-0.1-0.1-0.1-0.2-0.1-0.3c0.1-0.1,0.2-0.1,0.3-0.1l40.8,23.5
					c0.1,0.1,0.1,0.2,0.1,0.3C167.7,144.4,167.6,144.4,167.5,144.4z"/>
			</g>
			<g>
				<path class="st0" d="M126,122c-0.7-0.4-1-1.4-0.6-2.1s1.4-1,2.1-0.6s1,1.4,0.6,2.1C127.7,122.2,126.7,122.4,126,122z"/>
			</g>
			<g>
				<path class="st0" d="M166.8,145.6c0.7,0.4,1.7,0.2,2.1-0.6c0.4-0.7,0.2-1.7-0.6-2.1c-0.7-0.4-1.7-0.2-2.1,0.6
					C165.8,144.2,166,145.1,166.8,145.6z"/>
			</g>
		</g>
		<g>
			<g>
				<path class="st0" d="M167.5,144.4c-0.1,0-0.1,0-0.2-0.1c-0.1-0.1,0-0.2,0.1-0.3l40.8-23.5c0.1-0.1,0.2,0,0.3,0.1s0,0.2-0.1,0.3
					l-40.8,23.5C167.6,144.4,167.6,144.4,167.5,144.4z"/>
			</g>
			<g>
				<path class="st0" d="M168.3,145.6c-0.7,0.4-1.7,0.2-2.1-0.6c-0.4-0.7-0.2-1.7,0.6-2.1c0.7-0.4,1.7-0.2,2.1,0.6
					C169.3,144.2,169,145.1,168.3,145.6z"/>
			</g>
			<g>
				<path class="st0" d="M209.1,122c0.7-0.4,1-1.4,0.6-2.1s-1.4-1-2.1-0.6c-0.7,0.4-1,1.4-0.6,2.1
					C207.4,122.2,208.4,122.4,209.1,122z"/>
			</g>
		</g>
		<g>
			<g>
				<path class="st0" d="M208.3,120.9c-0.1,0-0.2-0.1-0.2-0.2V73.6c0-0.1,0.1-0.2,0.2-0.2c0.1,0,0.2,0.1,0.2,0.2v47.1
					C208.5,120.8,208.4,120.9,208.3,120.9z"/>
			</g>
			<g>
				<path class="st0" d="M209.9,120.7c0,0.8-0.7,1.5-1.5,1.5c-0.9,0-1.5-0.7-1.5-1.5s0.7-1.5,1.5-1.5
					C209.2,119.1,209.9,119.8,209.9,120.7z"/>
			</g>
			<g>
				<path class="st0" d="M209.9,73.6c0-0.9-0.7-1.5-1.5-1.5s-1.5,0.7-1.5,1.5s0.7,1.5,1.5,1.5S209.9,74.4,209.9,73.6z"/>
			</g>
		</g>
		<g>
			<g>
				<path class="st0" d="M208.3,73.8h-0.1l-40.8-23.5c-0.1-0.1-0.1-0.2-0.1-0.3c0.1-0.1,0.2-0.1,0.3-0.1l40.8,23.5
					c0.1,0.1,0.1,0.2,0.1,0.3C208.5,73.7,208.4,73.8,208.3,73.8z"/>
			</g>
			<g>
				<path class="st0" d="M209.1,72.2c0.7,0.4,1,1.4,0.6,2.1s-1.4,1-2.1,0.6c-0.7-0.4-1-1.4-0.6-2.1S208.3,71.8,209.1,72.2z"/>
			</g>
			<g>
				<path class="st0" d="M168.3,48.7c-0.7-0.4-1.7-0.2-2.1,0.6c-0.4,0.7-0.2,1.7,0.6,2.1c0.7,0.4,1.7,0.2,2.1-0.6
					C169.3,50.1,169,49.1,168.3,48.7z"/>
			</g>
		</g>
		<g>
			<g>
				<path class="st0" d="M126.7,73.8c-0.1,0-0.1,0-0.2-0.1s0-0.2,0.1-0.3l40.8-23.5c0.1-0.1,0.2,0,0.3,0.1s0,0.2-0.1,0.3L126.7,73.8
					C126.8,73.8,126.8,73.8,126.7,73.8z"/>
			</g>
			<g>
				<path class="st0" d="M166.8,48.7c0.7-0.4,1.7-0.2,2.1,0.6c0.4,0.7,0.2,1.7-0.6,2.1c-0.7,0.4-1.7,0.2-2.1-0.6
					C165.8,50.1,166,49.1,166.8,48.7z"/>
			</g>
			<g>
				<path class="st0" d="M126,72.2c-0.7,0.4-1,1.4-0.6,2.1s1.4,1,2.1,0.6s1-1.4,0.6-2.1C127.7,72.1,126.7,71.8,126,72.2z"/>
			</g>
		</g>
		<g>
			<g>
				<path class="st0" d="M208.3,120.9c-0.1,0-0.2-0.1-0.2-0.2V73.6c0-0.1,0.1-0.2,0.2-0.2c0.1,0,0.2,0.1,0.2,0.2v47.1
					C208.5,120.8,208.4,120.9,208.3,120.9z"/>
			</g>
			<g>
				<path class="st0" d="M209.9,120.7c0,0.8-0.7,1.5-1.5,1.5c-0.9,0-1.5-0.7-1.5-1.5s0.7-1.5,1.5-1.5
					C209.2,119.1,209.9,119.8,209.9,120.7z"/>
			</g>
			<g>
				<path class="st0" d="M209.9,73.6c0-0.8-0.7-1.5-1.5-1.5c-0.9,0-1.5,0.7-1.5,1.5s0.7,1.5,1.5,1.5S209.9,74.4,209.9,73.6z"/>
			</g>
		</g>
		<g>
			<g>
				<path class="st0" d="M249.1,144.4H249l-40.8-23.5c-0.1-0.1-0.1-0.2-0.1-0.3c0.1-0.1,0.2-0.1,0.3-0.1l40.8,23.5
					c0.1,0.1,0.1,0.2,0.1,0.3C249.2,144.4,249.2,144.4,249.1,144.4z"/>
			</g>
			<g>
				<path class="st0" d="M207.5,122c-0.7-0.4-1-1.4-0.6-2.1s1.4-1,2.1-0.6c0.7,0.4,1,1.4,0.6,2.1C209.2,122.2,208.3,122.4,207.5,122
					z"/>
			</g>
			<g>
				<path class="st0" d="M248.3,145.6c0.7,0.4,1.7,0.2,2.1-0.6c0.4-0.7,0.2-1.7-0.6-2.1c-0.7-0.4-1.7-0.2-2.1,0.6
					C247.3,144.2,247.6,145.1,248.3,145.6z"/>
			</g>
		</g>
		<g>
			<g>
				<path class="st0" d="M249.1,144.4c-0.1,0-0.1,0-0.2-0.1c-0.1-0.1,0-0.2,0.1-0.3l40.8-23.5c0.1-0.1,0.2,0,0.3,0.1
					c0.1,0.1,0,0.2-0.1,0.3L249.1,144.4L249.1,144.4z"/>
			</g>
			<g>
				<path class="st0" d="M249.9,145.6c-0.7,0.4-1.7,0.2-2.1-0.6c-0.4-0.7-0.2-1.7,0.6-2.1c0.7-0.4,1.7-0.2,2.1,0.6
					C250.9,144.2,250.6,145.1,249.9,145.6z"/>
			</g>
			<g>
				<path class="st0" d="M290.7,122c0.7-0.4,1-1.4,0.6-2.1s-1.4-1-2.1-0.6s-1,1.4-0.6,2.1C289,122.2,289.9,122.4,290.7,122z"/>
			</g>
		</g>
		<g>
			<g>
				<path class="st0" d="M289.9,120.9c-0.1,0-0.2-0.1-0.2-0.2V73.6c0-0.1,0.1-0.2,0.2-0.2s0.2,0.1,0.2,0.2v47.1
					C290.1,120.8,290,120.9,289.9,120.9z"/>
			</g>
			<g>
				<ellipse class="st0" cx="289.9" cy="120.7" rx="1.5" ry="1.5"/>
			</g>
			<g>
				<path class="st0" d="M291.4,73.6c0-0.9-0.7-1.5-1.5-1.5c-0.9,0-1.5,0.7-1.5,1.5s0.7,1.5,1.5,1.5
					C290.7,75.1,291.4,74.4,291.4,73.6z"/>
			</g>
		</g>
		<g>
			<g>
				<path class="st0" d="M289.9,73.8h-0.1L249,50.2c-0.1-0.1-0.1-0.2-0.1-0.3c0.1-0.1,0.2-0.1,0.3-0.1L290,73.4
					c0.1,0.1,0.1,0.2,0.1,0.3C290,73.7,290,73.8,289.9,73.8z"/>
			</g>
			<g>
				<path class="st0" d="M290.7,72.2c0.7,0.4,1,1.4,0.6,2.1s-1.4,1-2.1,0.6s-1-1.4-0.6-2.1S289.9,71.8,290.7,72.2z"/>
			</g>
			<g>
				<path class="st0" d="M249.9,48.7c-0.7-0.4-1.7-0.2-2.1,0.6c-0.4,0.7-0.2,1.7,0.6,2.1c0.7,0.4,1.7,0.2,2.1-0.6
					C250.9,50.1,250.6,49.1,249.9,48.7z"/>
			</g>
		</g>
		<g>
			<g>
				<path class="st0" d="M208.3,73.8c-0.1,0-0.1,0-0.2-0.1c-0.1-0.1,0-0.2,0.1-0.3L249,49.9c0.1-0.1,0.2,0,0.3,0.1s0,0.2-0.1,0.3
					L208.3,73.8C208.4,73.8,208.4,73.8,208.3,73.8z"/>
			</g>
			<g>
				<path class="st0" d="M248.3,48.7c0.7-0.4,1.7-0.2,2.1,0.6c0.4,0.7,0.2,1.7-0.6,2.1c-0.7,0.4-1.7,0.2-2.1-0.6
					C247.3,50.1,247.6,49.1,248.3,48.7z"/>
			</g>
			<g>
				<path class="st0" d="M207.5,72.2c-0.7,0.4-1,1.4-0.6,2.1s1.4,1,2.1,0.6c0.7-0.4,1-1.4,0.6-2.1C209.2,72.1,208.3,71.8,207.5,72.2
					z"/>
			</g>
		</g>
		<g>
			<g>
				<path class="st0" d="M126.7,215.1c-0.1,0-0.1,0-0.2-0.1s0-0.2,0.1-0.3l40.8-23.5c0.1-0.1,0.2,0,0.3,0.1s0,0.2-0.1,0.3L126.9,215
					C126.8,215.1,126.8,215.1,126.7,215.1z"/>
			</g>
			<g>
				<path class="st0" d="M127.5,216.2c-0.7,0.4-1.7,0.2-2.1-0.6c-0.4-0.7-0.2-1.7,0.6-2.1c0.7-0.4,1.7-0.2,2.1,0.6
					C128.5,214.8,128.3,215.8,127.5,216.2z"/>
			</g>
			<g>
				<path class="st0" d="M168.3,192.7c0.7-0.4,1-1.4,0.6-2.1c-0.4-0.7-1.4-1-2.1-0.6c-0.7,0.4-1,1.4-0.6,2.1
					C166.6,192.8,167.6,193.1,168.3,192.7z"/>
			</g>
		</g>
		<g>
			<g>
				<path class="st0" d="M167.5,191.5c-0.1,0-0.2-0.1-0.2-0.2v-47.1c0-0.1,0.1-0.2,0.2-0.2c0.1,0,0.2,0.1,0.2,0.2v47.1
					C167.7,191.4,167.6,191.5,167.5,191.5z"/>
			</g>
			<g>
				<path class="st0" d="M169.1,191.3c0,0.8-0.7,1.5-1.5,1.5s-1.5-0.7-1.5-1.5s0.7-1.5,1.5-1.5C168.4,189.8,169.1,190.5,169.1,191.3
					z"/>
			</g>
			<g>
				<path class="st0" d="M169.1,144.2c0-0.9-0.7-1.5-1.5-1.5c-0.9,0-1.5,0.7-1.5,1.5s0.7,1.5,1.5,1.5
					C168.4,145.8,169.1,145.1,169.1,144.2z"/>
			</g>
		</g>
		<g>
			<g>
				<path class="st0" d="M167.5,144.4h-0.1l-40.8-23.5c-0.1-0.1-0.1-0.2-0.1-0.3c0.1-0.1,0.2-0.1,0.3-0.1l40.8,23.5
					c0.1,0.1,0.1,0.2,0.1,0.3C167.7,144.4,167.6,144.4,167.5,144.4z"/>
			</g>
			<g>
				<path class="st0" d="M168.3,142.9c0.7,0.4,1,1.4,0.6,2.1c-0.4,0.7-1.4,1-2.1,0.6c-0.7-0.4-1-1.4-0.6-2.1
					C166.6,142.7,167.6,142.5,168.3,142.9z"/>
			</g>
			<g>
				<path class="st0" d="M127.5,119.3c-0.7-0.4-1.7-0.2-2.1,0.6c-0.4,0.7-0.2,1.7,0.6,2.1c0.7,0.4,1.7,0.2,2.1-0.6
					C128.5,120.7,128.3,119.8,127.5,119.3z"/>
			</g>
		</g>
		<g>
			<g>
				<path class="st0" d="M86,144.4c-0.1,0-0.1,0-0.2-0.1s0-0.2,0.1-0.3l40.8-23.5c0.1-0.1,0.2,0,0.3,0.1c0.1,0.1,0,0.2-0.1,0.3
					l-40.8,23.5C86,144.4,86,144.4,86,144.4z"/>
			</g>
			<g>
				<path class="st0" d="M126,119.3c0.7-0.4,1.7-0.2,2.1,0.6c0.4,0.7,0.2,1.7-0.6,2.1c-0.7,0.4-1.7,0.2-2.1-0.6
					C125,120.7,125.2,119.8,126,119.3z"/>
			</g>
			<g>
				<path class="st0" d="M85.2,142.9c-0.7,0.4-1,1.4-0.6,2.1c0.4,0.7,1.4,1,2.1,0.6s1-1.4,0.6-2.1C86.9,142.7,85.9,142.5,85.2,142.9
					z"/>
			</g>
		</g>
		<g>
			<g>
				<path class="st0" d="M167.5,191.5c-0.1,0-0.2-0.1-0.2-0.2v-47.1c0-0.1,0.1-0.2,0.2-0.2c0.1,0,0.2,0.1,0.2,0.2v47.1
					C167.7,191.4,167.6,191.5,167.5,191.5z"/>
			</g>
			<g>
				<path class="st0" d="M169.1,191.3c0,0.9-0.7,1.5-1.5,1.5c-0.9,0-1.5-0.7-1.5-1.5s0.7-1.5,1.5-1.5
					C168.4,189.8,169.1,190.5,169.1,191.3z"/>
			</g>
			<g>
				<path class="st0" d="M169.1,144.2c0-0.9-0.7-1.5-1.5-1.5c-0.9,0-1.5,0.7-1.5,1.5s0.7,1.5,1.5,1.5
					C168.4,145.8,169.1,145.1,169.1,144.2z"/>
			</g>
		</g>
		<g>
			<g>
				<path class="st0" d="M208.3,215.1h-0.1l-40.8-23.5c-0.1-0.1-0.1-0.2-0.1-0.3c0.1-0.1,0.2-0.1,0.3-0.1l40.8,23.5
					c0.1,0.1,0.1,0.2,0.1,0.3C208.5,215,208.4,215.1,208.3,215.1z"/>
			</g>
			<g>
				<path class="st0" d="M166.8,192.7c-0.7-0.4-1-1.4-0.6-2.1c0.4-0.7,1.4-1,2.1-0.6c0.7,0.4,1,1.4,0.6,2.1
					C168.4,192.8,167.5,193.1,166.8,192.7z"/>
			</g>
			<g>
				<path class="st0" d="M207.5,216.2c0.7,0.4,1.7,0.2,2.1-0.6c0.4-0.7,0.2-1.7-0.6-2.1c-0.7-0.4-1.7-0.2-2.1,0.6
					C206.6,214.8,206.8,215.8,207.5,216.2z"/>
			</g>
		</g>
		<g>
			<g>
				<path class="st0" d="M208.3,215.1c-0.1,0-0.1,0-0.2-0.1c-0.1-0.1,0-0.2,0.1-0.3l40.8-23.5c0.1-0.1,0.2,0,0.3,0.1s0,0.2-0.1,0.3
					L208.4,215C208.4,215.1,208.4,215.1,208.3,215.1z"/>
			</g>
			<g>
				<path class="st0" d="M209.1,216.2c-0.7,0.4-1.7,0.2-2.1-0.6c-0.4-0.7-0.2-1.7,0.6-2.1c0.7-0.4,1.7-0.2,2.1,0.6
					C210.1,214.8,209.8,215.8,209.1,216.2z"/>
			</g>
			<g>
				<path class="st0" d="M249.9,192.7c0.7-0.4,1-1.4,0.6-2.1c-0.4-0.7-1.4-1-2.1-0.6c-0.7,0.4-1,1.4-0.6,2.1
					C248.2,192.8,249.1,193.1,249.9,192.7z"/>
			</g>
		</g>
		<g>
			<g>
				<path class="st0" d="M249.1,191.5c-0.1,0-0.2-0.1-0.2-0.2v-47.1c0-0.1,0.1-0.2,0.2-0.2c0.1,0,0.2,0.1,0.2,0.2v47.1
					C249.3,191.4,249.2,191.5,249.1,191.5z"/>
			</g>
			<g>
				<path class="st0" d="M250.6,191.3c0,0.8-0.7,1.5-1.5,1.5s-1.5-0.7-1.5-1.5s0.7-1.5,1.5-1.5C250,189.8,250.6,190.5,250.6,191.3z"
					/>
			</g>
			<g>
				<path class="st0" d="M250.6,144.2c0-0.9-0.7-1.5-1.5-1.5s-1.5,0.7-1.5,1.5s0.7,1.5,1.5,1.5C250,145.8,250.6,145.1,250.6,144.2z"
					/>
			</g>
		</g>
		<g>
			<g>
				<path class="st0" d="M249.1,144.4H249l-40.8-23.5c-0.1-0.1-0.1-0.2-0.1-0.3c0.1-0.1,0.2-0.1,0.3-0.1l40.8,23.5
					c0.1,0.1,0.1,0.2,0.1,0.3C249.2,144.4,249.2,144.4,249.1,144.4z"/>
			</g>
			<g>
				<path class="st0" d="M249.9,142.9c0.7,0.4,1,1.4,0.6,2.1c-0.4,0.7-1.4,1-2.1,0.6c-0.7-0.4-1-1.4-0.6-2.1
					C248.2,142.7,249.1,142.5,249.9,142.9z"/>
			</g>
			<g>
				<path class="st0" d="M209.1,119.3c-0.7-0.4-1.7-0.2-2.1,0.6c-0.4,0.7-0.2,1.7,0.6,2.1c0.7,0.4,1.7,0.2,2.1-0.6
					C210.1,120.7,209.8,119.8,209.1,119.3z"/>
			</g>
		</g>
		<g>
			<g>
				<path class="st0" d="M167.5,144.4c-0.1,0-0.1,0-0.2-0.1c-0.1-0.1,0-0.2,0.1-0.3l40.8-23.5c0.1-0.1,0.2,0,0.3,0.1s0,0.2-0.1,0.3
					l-40.8,23.5C167.6,144.4,167.6,144.4,167.5,144.4z"/>
			</g>
			<g>
				<path class="st0" d="M207.5,119.3c0.7-0.4,1.7-0.2,2.1,0.6c0.4,0.7,0.2,1.7-0.6,2.1c-0.7,0.4-1.7,0.2-2.1-0.6
					C206.6,120.7,206.8,119.8,207.5,119.3z"/>
			</g>
			<g>
				<path class="st0" d="M166.8,142.9c-0.7,0.4-1,1.4-0.6,2.1c0.4,0.7,1.4,1,2.1,0.6c0.7-0.4,1-1.4,0.6-2.1
					C168.4,142.7,167.5,142.5,166.8,142.9z"/>
			</g>
		</g>
		<g>
			<g>
				<path class="st0" d="M126.8,262.2c-0.1,0-0.2-0.1-0.2-0.2v-47.1c0-0.1,0.1-0.2,0.2-0.2s0.2,0.1,0.2,0.2V262
					C127,262.1,126.9,262.2,126.8,262.2z"/>
			</g>
			<g>
				<path class="st0" d="M128.3,262c0,0.9-0.7,1.5-1.5,1.5s-1.5-0.7-1.5-1.5s0.7-1.5,1.5-1.5C127.6,260.4,128.3,261.1,128.3,262z"/>
			</g>
			<g>
				<path class="st0" d="M128.3,214.9c0-0.8-0.7-1.5-1.5-1.5c-0.9,0-1.5,0.7-1.5,1.5s0.7,1.5,1.5,1.5
					C127.6,216.4,128.3,215.7,128.3,214.9z"/>
			</g>
		</g>
		<g>
			<g>
				<path class="st0" d="M126.7,262.2c-0.1,0-0.2-0.1-0.2-0.2v-47.1c0-0.1,0.1-0.2,0.2-0.2s0.2,0.1,0.2,0.2V262
					C127,262.1,126.9,262.2,126.7,262.2z"/>
			</g>
			<g>
				<path class="st0" d="M128.3,262c0,0.9-0.7,1.5-1.5,1.5s-1.5-0.7-1.5-1.5s0.7-1.5,1.5-1.5S128.3,261.1,128.3,262z"/>
			</g>
			<g>
				<path class="st0" d="M128.3,214.9c0-0.8-0.7-1.5-1.5-1.5s-1.5,0.7-1.5,1.5c0,0.9,0.7,1.5,1.5,1.5S128.3,215.7,128.3,214.9z"/>
			</g>
		</g>
		<g>
			<g>
				<path class="st0" d="M167.5,285.7h-0.1l-40.8-23.5c-0.1-0.1-0.1-0.2-0.1-0.3c0.1-0.1,0.2-0.1,0.3-0.1l40.8,23.5
					c0.1,0.1,0.1,0.2,0.1,0.3C167.7,285.7,167.6,285.7,167.5,285.7z"/>
			</g>
			<g>
				<path class="st0" d="M126,263.3c-0.7-0.4-1-1.4-0.6-2.1s1.4-1,2.1-0.6s1,1.4,0.6,2.1C127.7,263.5,126.7,263.7,126,263.3z"/>
			</g>
			<g>
				<path class="st0" d="M166.8,286.8c0.7,0.4,1.7,0.2,2.1-0.6c0.4-0.7,0.2-1.7-0.6-2.1c-0.7-0.4-1.7-0.2-2.1,0.6
					C165.8,285.5,166,286.4,166.8,286.8z"/>
			</g>
		</g>
		<g>
			<g>
				<path class="st0" d="M167.5,285.7c-0.1,0-0.1,0-0.2-0.1c-0.1-0.1,0-0.2,0.1-0.3l40.8-23.5c0.1-0.1,0.2,0,0.3,0.1s0,0.2-0.1,0.3
					l-40.8,23.5C167.6,285.7,167.6,285.7,167.5,285.7z"/>
			</g>
			<g>
				<path class="st0" d="M168.3,286.8c-0.7,0.4-1.7,0.2-2.1-0.6c-0.4-0.7-0.2-1.7,0.6-2.1c0.7-0.4,1.7-0.2,2.1,0.6
					C169.3,285.5,169,286.4,168.3,286.8z"/>
			</g>
			<g>
				<path class="st0" d="M209.1,263.3c0.7-0.4,1-1.4,0.6-2.1s-1.4-1-2.1-0.6c-0.7,0.4-1,1.4-0.6,2.1
					C207.4,263.5,208.4,263.7,209.1,263.3z"/>
			</g>
		</g>
		<g>
			<g>
				<path class="st0" d="M208.3,262.2c-0.1,0-0.2-0.1-0.2-0.2v-47.1c0-0.1,0.1-0.2,0.2-0.2c0.1,0,0.2,0.1,0.2,0.2V262
					C208.5,262.1,208.4,262.2,208.3,262.2z"/>
			</g>
			<g>
				<path class="st0" d="M209.9,262c0,0.9-0.7,1.5-1.5,1.5c-0.9,0-1.5-0.7-1.5-1.5s0.7-1.5,1.5-1.5
					C209.2,260.4,209.9,261.1,209.9,262z"/>
			</g>
			<g>
				<path class="st0" d="M209.9,214.9c0-0.8-0.7-1.5-1.5-1.5s-1.5,0.7-1.5,1.5s0.7,1.5,1.5,1.5S209.9,215.7,209.9,214.9z"/>
			</g>
		</g>
		<g>
			<g>
				<path class="st0" d="M208.3,215.1h-0.1l-40.8-23.5c-0.1-0.1-0.1-0.2-0.1-0.3c0.1-0.1,0.2-0.1,0.3-0.1l40.8,23.5
					c0.1,0.1,0.1,0.2,0.1,0.3C208.5,215,208.4,215.1,208.3,215.1z"/>
			</g>
			<g>
				<path class="st0" d="M209.1,213.5c0.7,0.4,1,1.4,0.6,2.1c-0.4,0.7-1.4,1-2.1,0.6c-0.7-0.4-1-1.4-0.6-2.1
					S208.3,213.1,209.1,213.5z"/>
			</g>
			<g>
				<path class="st0" d="M168.3,190c-0.7-0.4-1.7-0.2-2.1,0.6c-0.4,0.7-0.2,1.7,0.6,2.1c0.7,0.4,1.7,0.2,2.1-0.6
					C169.3,191.4,169,190.4,168.3,190z"/>
			</g>
		</g>
		<g>
			<g>
				<path class="st0" d="M126.7,215.1c-0.1,0-0.1,0-0.2-0.1s0-0.2,0.1-0.3l40.8-23.5c0.1-0.1,0.2,0,0.3,0.1s0,0.2-0.1,0.3L126.9,215
					C126.8,215.1,126.8,215.1,126.7,215.1z"/>
			</g>
			<g>
				<path class="st0" d="M166.8,190c0.7-0.4,1.7-0.2,2.1,0.6c0.4,0.7,0.2,1.7-0.6,2.1c-0.7,0.4-1.7,0.2-2.1-0.6
					C165.8,191.4,166,190.4,166.8,190z"/>
			</g>
			<g>
				<path class="st0" d="M126,213.5c-0.7,0.4-1,1.4-0.6,2.1c0.4,0.7,1.4,1,2.1,0.6s1-1.4,0.6-2.1C127.7,213.4,126.7,213.1,126,213.5
					z"/>
			</g>
		</g>
		<g>
			<g>
				<path class="st0" d="M208.3,262.2c-0.1,0-0.2-0.1-0.2-0.2v-47.1c0-0.1,0.1-0.2,0.2-0.2c0.1,0,0.2,0.1,0.2,0.2V262
					C208.5,262.1,208.4,262.2,208.3,262.2z"/>
			</g>
			<g>
				<path class="st0" d="M209.9,262c0,0.9-0.7,1.5-1.5,1.5c-0.9,0-1.5-0.7-1.5-1.5s0.7-1.5,1.5-1.5
					C209.2,260.4,209.9,261.1,209.9,262z"/>
			</g>
			<g>
				<path class="st0" d="M209.9,214.9c0-0.8-0.7-1.5-1.5-1.5c-0.9,0-1.5,0.7-1.5,1.5c0,0.9,0.7,1.5,1.5,1.5S209.9,215.7,209.9,214.9
					z"/>
			</g>
		</g>
		<g>
			<g>
				<path class="st0" d="M249.1,285.7H249l-40.8-23.5c-0.1-0.1-0.1-0.2-0.1-0.3c0.1-0.1,0.2-0.1,0.3-0.1l40.8,23.5
					c0.1,0.1,0.1,0.2,0.1,0.3C249.2,285.7,249.2,285.7,249.1,285.7z"/>
			</g>
			<g>
				<path class="st0" d="M207.5,263.3c-0.7-0.4-1-1.4-0.6-2.1s1.4-1,2.1-0.6c0.7,0.4,1,1.4,0.6,2.1
					C209.2,263.5,208.3,263.7,207.5,263.3z"/>
			</g>
			<g>
				<path class="st0" d="M248.3,286.8c0.7,0.4,1.7,0.2,2.1-0.6c0.4-0.7,0.2-1.7-0.6-2.1c-0.7-0.4-1.7-0.2-2.1,0.6
					C247.3,285.5,247.6,286.4,248.3,286.8z"/>
			</g>
		</g>
		<g>
			<g>
				<path class="st0" d="M249.1,285.7c-0.1,0-0.1,0-0.2-0.1c-0.1-0.1,0-0.2,0.1-0.3l40.8-23.5c0.1-0.1,0.2,0,0.3,0.1
					c0.1,0.1,0,0.2-0.1,0.3L249.1,285.7L249.1,285.7z"/>
			</g>
			<g>
				<path class="st0" d="M249.9,286.8c-0.7,0.4-1.7,0.2-2.1-0.6c-0.4-0.7-0.2-1.7,0.6-2.1c0.7-0.4,1.7-0.2,2.1,0.6
					C250.9,285.5,250.6,286.4,249.9,286.8z"/>
			</g>
			<g>
				<path class="st0" d="M290.7,263.3c0.7-0.4,1-1.4,0.6-2.1s-1.4-1-2.1-0.6s-1,1.4-0.6,2.1C289,263.5,289.9,263.7,290.7,263.3z"/>
			</g>
		</g>
		<g>
			<g>
				<path class="st0" d="M289.9,262.2c-0.1,0-0.2-0.1-0.2-0.2v-47.1c0-0.1,0.1-0.2,0.2-0.2s0.2,0.1,0.2,0.2V262
					C290.1,262.1,290,262.2,289.9,262.2z"/>
			</g>
			<g>
				<path class="st0" d="M291.4,262c0,0.9-0.7,1.5-1.5,1.5c-0.9,0-1.5-0.7-1.5-1.5s0.7-1.5,1.5-1.5
					C290.7,260.4,291.4,261.1,291.4,262z"/>
			</g>
			<g>
				<path class="st0" d="M291.4,214.9c0-0.8-0.7-1.5-1.5-1.5c-0.9,0-1.5,0.7-1.5,1.5s0.7,1.5,1.5,1.5
					C290.7,216.4,291.4,215.7,291.4,214.9z"/>
			</g>
		</g>
		<g>
			<g>
				<path class="st0" d="M289.9,215.1h-0.1L249,191.5c-0.1-0.1-0.1-0.2-0.1-0.3c0.1-0.1,0.2-0.1,0.3-0.1l40.8,23.5
					c0.1,0.1,0.1,0.2,0.1,0.3C290,215,290,215.1,289.9,215.1z"/>
			</g>
			<g>
				<path class="st0" d="M290.7,213.5c0.7,0.4,1,1.4,0.6,2.1c-0.4,0.7-1.4,1-2.1,0.6s-1-1.4-0.6-2.1S289.9,213.1,290.7,213.5z"/>
			</g>
			<g>
				<path class="st0" d="M249.9,190c-0.7-0.4-1.7-0.2-2.1,0.6c-0.4,0.7-0.2,1.7,0.6,2.1c0.7,0.4,1.7,0.2,2.1-0.6
					S250.6,190.4,249.9,190z"/>
			</g>
		</g>
		<g>
			<g>
				<path class="st0" d="M208.3,215.1c-0.1,0-0.1,0-0.2-0.1c-0.1-0.1,0-0.2,0.1-0.3l40.8-23.5c0.1-0.1,0.2,0,0.3,0.1s0,0.2-0.1,0.3
					L208.4,215C208.4,215.1,208.4,215.1,208.3,215.1z"/>
			</g>
			<g>
				<path class="st0" d="M248.3,190c0.7-0.4,1.7-0.2,2.1,0.6c0.4,0.7,0.2,1.7-0.6,2.1c-0.7,0.4-1.7,0.2-2.1-0.6
					C247.3,191.4,247.6,190.4,248.3,190z"/>
			</g>
			<g>
				<path class="st0" d="M207.5,213.5c-0.7,0.4-1,1.4-0.6,2.1c0.4,0.7,1.4,1,2.1,0.6c0.7-0.4,1-1.4,0.6-2.1
					C209.2,213.4,208.3,213.1,207.5,213.5z"/>
			</g>
		</g>
		<g>
			<g>
				<path class="st0" d="M167.7,328v-42.5c0-0.1-0.1-0.2-0.2-0.2s-0.2,0.1-0.2,0.2V328H167.7z"/>
			</g>
			<g>
				<path class="st0" d="M169.1,285.5c0-0.9-0.7-1.5-1.5-1.5c-0.9,0-1.5,0.7-1.5,1.5s0.7,1.5,1.5,1.5
					C168.4,287.1,169.1,286.4,169.1,285.5z"/>
			</g>
		</g>
		<g>
			<g>
				<path class="st0" d="M167.5,285.7h-0.1l-40.8-23.5c-0.1-0.1-0.1-0.2-0.1-0.3c0.1-0.1,0.2-0.1,0.3-0.1l40.8,23.5
					c0.1,0.1,0.1,0.2,0.1,0.3C167.7,285.7,167.6,285.7,167.5,285.7z"/>
			</g>
			<g>
				<path class="st0" d="M168.3,284.2c0.7,0.4,1,1.4,0.6,2.1s-1.4,1-2.1,0.6c-0.7-0.4-1-1.4-0.6-2.1
					C166.6,284,167.6,283.8,168.3,284.2z"/>
			</g>
			<g>
				<path class="st0" d="M127.5,260.6c-0.7-0.4-1.7-0.2-2.1,0.6c-0.4,0.7-0.2,1.7,0.6,2.1c0.7,0.4,1.7,0.2,2.1-0.6
					C128.5,262,128.3,261.1,127.5,260.6z"/>
			</g>
		</g>
		<g>
			<g>
				<path class="st0" d="M167.7,328v-42.5c0-0.1-0.1-0.2-0.2-0.2c-0.1,0-0.2,0.1-0.2,0.2V328H167.7z"/>
			</g>
			<g>
				<path class="st0" d="M169.1,285.5c0-0.9-0.7-1.5-1.5-1.5c-0.9,0-1.5,0.7-1.5,1.5s0.7,1.5,1.5,1.5
					C168.4,287.1,169.1,286.4,169.1,285.5z"/>
			</g>
		</g>
		<g>
			<g>
				<path class="st0" d="M249.3,328v-42.5c0-0.1-0.1-0.2-0.2-0.2c-0.1,0-0.2,0.1-0.2,0.2V328H249.3z"/>
			</g>
			<g>
				<path class="st0" d="M250.6,285.5c0-0.9-0.7-1.5-1.5-1.5s-1.5,0.7-1.5,1.5s0.7,1.5,1.5,1.5C250,287.1,250.6,286.4,250.6,285.5z"
					/>
			</g>
		</g>
		<g>
			<g>
				<path class="st0" d="M249.1,285.7H249l-40.8-23.5c-0.1-0.1-0.1-0.2-0.1-0.3c0.1-0.1,0.2-0.1,0.3-0.1l40.8,23.5
					c0.1,0.1,0.1,0.2,0.1,0.3C249.2,285.7,249.2,285.7,249.1,285.7z"/>
			</g>
			<g>
				<path class="st0" d="M249.9,284.2c0.7,0.4,1,1.4,0.6,2.1s-1.4,1-2.1,0.6c-0.7-0.4-1-1.4-0.6-2.1
					C248.2,284,249.1,283.8,249.9,284.2z"/>
			</g>
			<g>
				<path class="st0" d="M209.1,260.6c-0.7-0.4-1.7-0.2-2.1,0.6c-0.4,0.7-0.2,1.7,0.6,2.1c0.7,0.4,1.7,0.2,2.1-0.6
					C210.1,262,209.8,261.1,209.1,260.6z"/>
			</g>
		</g>
		<g>
			<g>
				<path class="st0" d="M167.5,285.7c-0.1,0-0.1,0-0.2-0.1c-0.1-0.1,0-0.2,0.1-0.3l40.8-23.5c0.1-0.1,0.2,0,0.3,0.1s0,0.2-0.1,0.3
					l-40.8,23.5C167.6,285.7,167.6,285.7,167.5,285.7z"/>
			</g>
			<g>
				<path class="st0" d="M207.5,260.6c0.7-0.4,1.7-0.2,2.1,0.6c0.4,0.7,0.2,1.7-0.6,2.1c-0.7,0.4-1.7,0.2-2.1-0.6
					C206.6,262,206.8,261.1,207.5,260.6z"/>
			</g>
			<g>
				<path class="st0" d="M166.8,284.2c-0.7,0.4-1,1.4-0.6,2.1s1.4,1,2.1,0.6c0.7-0.4,1-1.4,0.6-2.1
					C168.4,284,167.5,283.8,166.8,284.2z"/>
			</g>
		</g>
	</g>
	<g>
		<g>
			<path class="st0" d="M341.2,328h0.8l-32.3-18.7c-0.1-0.1-0.2,0-0.3,0.1c-0.1,0.1,0,0.2,0.1,0.3L341.2,328z"/>
		</g>
		<g>
			<path class="st0" d="M345.5,243.1l-36,20.8c-0.1,0.1-0.1,0.2-0.1,0.3c0,0.1,0.1,0.1,0.2,0.1h0.1l35.8-20.7V243.1z"/>
		</g>
		<g>
			<path class="st0" d="M309.6,309.7c-0.1,0-0.2-0.1-0.2-0.2v-45.4c0-0.1,0.1-0.2,0.2-0.2s0.2,0.1,0.2,0.2v45.4
				C309.8,309.6,309.7,309.7,309.6,309.7z"/>
		</g>
		<g>
			<path class="st0" d="M341.2,328h0.8l-32.3-18.7c-0.1-0.1-0.2,0-0.3,0.1c-0.1,0.1,0,0.2,0.1,0.3L341.2,328z"/>
		</g>
		<g>
			<path class="st0" d="M309.6,309.7c-0.1,0-0.2-0.1-0.2-0.2V264c0-0.1,0.1-0.2,0.2-0.2s0.2,0.1,0.2,0.2v45.4
				C309.8,309.6,309.7,309.7,309.6,309.7z"/>
		</g>
		<g>
			<path class="st0" d="M309.6,264.2h-0.1l-39.4-22.7c-0.1-0.1-0.1-0.2-0.1-0.3c0.1-0.1,0.2-0.1,0.3-0.1l39.4,22.7
				c0.1,0.1,0.1,0.2,0.1,0.3C309.8,264.2,309.7,264.2,309.6,264.2z"/>
		</g>
		<g>
			<path class="st0" d="M345.5,193.6L309.7,173c-0.1-0.1-0.2,0-0.3,0.1c-0.1,0.1,0,0.2,0.1,0.3l36,20.8L345.5,193.6L345.5,193.6z"/>
		</g>
		<g>
			<path class="st0" d="M270.3,196.1c-0.1,0-0.1,0-0.2-0.1s0-0.2,0.1-0.3l39.4-22.7c0.1-0.1,0.2,0,0.3,0.1c0.1,0.1,0,0.2-0.1,0.3
				L270.3,196.1L270.3,196.1z"/>
		</g>
		<g>
			<path class="st0" d="M270.3,241.5c-0.1,0-0.2-0.1-0.2-0.2v-45.4c0-0.1,0.1-0.2,0.2-0.2s0.2,0.1,0.2,0.2v45.4
				C270.5,241.4,270.4,241.5,270.3,241.5z"/>
		</g>
		<g>
			<path class="st0" d="M309.6,264.2h-0.1l-39.3-22.7c-0.1-0.1-0.1-0.2-0.1-0.3c0.1-0.1,0.2-0.1,0.3-0.1l39.3,22.7
				c0.1,0.1,0.1,0.2,0.1,0.3C309.8,264.2,309.7,264.2,309.6,264.2z"/>
		</g>
		<g>
			<path class="st0" d="M345.5,243.1l-36,20.8c-0.1,0.1-0.1,0.2-0.1,0.3c0,0.1,0.1,0.1,0.2,0.1h0.1l35.8-20.6V243.1z"/>
		</g>
		<g>
			<path class="st0" d="M270.3,241.5c-0.1,0-0.2-0.1-0.2-0.2v-45.4c0-0.1,0.1-0.2,0.2-0.2s0.2,0.1,0.2,0.2v45.4
				C270.5,241.4,270.4,241.5,270.3,241.5z"/>
		</g>
		<g>
			<path class="st0" d="M345.5,106.8l-36,20.8c-0.1,0.1-0.1,0.2-0.1,0.3s0.1,0.1,0.2,0.1h0.1l35.8-20.7V106.8z"/>
		</g>
		<g>
			<path class="st0" d="M309.6,173.4c-0.1,0-0.2-0.1-0.2-0.2v-45.4c0-0.1,0.1-0.2,0.2-0.2s0.2,0.1,0.2,0.2v45.4
				C309.8,173.3,309.7,173.4,309.6,173.4z"/>
		</g>
		<g>
			<path class="st0" d="M345.5,193.6L309.7,173c-0.1-0.1-0.2,0-0.3,0.1c-0.1,0.1,0,0.2,0.1,0.3l36,20.8L345.5,193.6L345.5,193.6z"/>
		</g>
		<g>
			<path class="st0" d="M309.6,173.4c-0.1,0-0.2-0.1-0.2-0.2v-45.4c0-0.1,0.1-0.2,0.2-0.2s0.2,0.1,0.2,0.2v45.4
				C309.8,173.3,309.7,173.4,309.6,173.4z"/>
		</g>
		<g>
			<path class="st0" d="M309.6,127.9h-0.1l-39.4-22.7c-0.1-0.1-0.1-0.2-0.1-0.3s0.2-0.1,0.3-0.1l39.4,22.7c0.1,0.1,0.1,0.2,0.1,0.3
				C309.8,127.9,309.7,127.9,309.6,127.9z"/>
		</g>
		<g>
			<path class="st0" d="M270.3,196.1c-0.1,0-0.1,0-0.2-0.1s0-0.2,0.1-0.3l39.4-22.7c0.1-0.1,0.2,0,0.3,0.1c0.1,0.1,0,0.2-0.1,0.3
				L270.3,196.1L270.3,196.1z"/>
		</g>
		<g>
			<path class="st0" d="M345.5,57.3l-35.8-20.6c-0.1-0.1-0.2,0-0.3,0.1c-0.1,0.1,0,0.2,0.1,0.3l36,20.8L345.5,57.3L345.5,57.3z"/>
		</g>
		<g>
			<path class="st0" d="M270.3,59.7c-0.1,0-0.1,0-0.2-0.1s0-0.2,0.1-0.3l39.4-22.7c0.1-0.1,0.2,0,0.3,0.1c0.1,0.1,0,0.2-0.1,0.3
				L270.3,59.7L270.3,59.7z"/>
		</g>
		<g>
			<path class="st0" d="M270.3,105.2c-0.1,0-0.2-0.1-0.2-0.2V59.6c0-0.1,0.1-0.2,0.2-0.2s0.2,0.1,0.2,0.2V105
				C270.5,105.1,270.4,105.2,270.3,105.2z"/>
		</g>
		<g>
			<path class="st0" d="M309.6,127.9h-0.1l-39.3-22.7c-0.1-0.1-0.1-0.2-0.1-0.3c0.1-0.1,0.2-0.1,0.3-0.1l39.3,22.7
				c0.1,0.1,0.1,0.2,0.1,0.3C309.8,127.9,309.7,127.9,309.6,127.9z"/>
		</g>
		<g>
			<path class="st0" d="M345.5,106.8l-36,20.8c-0.1,0.1-0.1,0.2-0.1,0.3s0.1,0.1,0.2,0.1h0.1l35.8-20.6V106.8z"/>
		</g>
		<g>
			<path class="st0" d="M270.3,105.2c-0.1,0-0.2-0.1-0.2-0.2V59.5c0-0.1,0.1-0.2,0.2-0.2s0.2,0.1,0.2,0.2V105
				C270.5,105.1,270.4,105.2,270.3,105.2z"/>
		</g>
		<g>
			<path class="st0" d="M270.3,59.7h-0.1L230.8,37c-0.1-0.1-0.1-0.2-0.1-0.3c0.1-0.1,0.2-0.1,0.3-0.1l39.4,22.7
				c0.1,0.1,0.1,0.2,0.1,0.3C270.4,59.7,270.3,59.7,270.3,59.7z"/>
		</g>
		<g>
			<path class="st0" d="M309.4,2.3v34.5c0,0.1,0.1,0.2,0.2,0.2s0.2-0.1,0.2-0.2V2.3C309.8,2.3,309.4,2.3,309.4,2.3z"/>
		</g>
		<g>
			<path class="st0" d="M345.5,57.3l-35.8-20.7c-0.1-0.1-0.2,0-0.3,0.1c-0.1,0.1,0,0.2,0.1,0.3l36,20.8L345.5,57.3L345.5,57.3z"/>
		</g>
		<g>
			<path class="st0" d="M309.4,2.3v34.5c0,0.1,0.1,0.2,0.2,0.2s0.2-0.1,0.2-0.2V2.3H309.4z"/>
		</g>
		<g>
			<path class="st0" d="M230.7,2.3v34.5c0,0.1,0.1,0.2,0.2,0.2c0.1,0,0.2-0.1,0.2-0.2V2.3C231.1,2.3,230.7,2.3,230.7,2.3z"/>
		</g>
		<g>
			<path class="st0" d="M270.3,59.7h-0.1L230.8,37c-0.1-0.1-0.1-0.2-0.1-0.3c0.1-0.1,0.2-0.1,0.3-0.1l39.3,22.7
				c0.1,0.1,0.1,0.2,0.1,0.3S270.3,59.7,270.3,59.7z"/>
		</g>
		<g>
			<path class="st0" d="M270.3,59.7c-0.1,0-0.1,0-0.2-0.1s0-0.2,0.1-0.3l39.4-22.7c0.1-0.1,0.2,0,0.3,0.1c0.1,0.1,0,0.2-0.1,0.3
				L270.3,59.7L270.3,59.7z"/>
		</g>
		<g>
			<path class="st0" d="M230.7,2.3v34.5c0,0.1,0.1,0.2,0.2,0.2s0.2-0.1,0.2-0.2V2.3H230.7z"/>
		</g>
	</g>
	<g>
		<g>
			<g>
				<g>
					<path class="st0" d="M345.5,314.5l-7.4-4.3c-0.1-0.1-0.2,0-0.3,0.1c-0.1,0.1,0,0.2,0.1,0.3l7.6,4.4L345.5,314.5L345.5,314.5z"
						/>
				</g>
				<g>
					<path class="st0" d="M338.7,309.1c-0.7-0.4-1.7-0.2-2.1,0.6c-0.4,0.7-0.2,1.7,0.6,2.1c0.7,0.4,1.7,0.2,2.1-0.6
						C339.7,310.5,339.5,309.5,338.7,309.1z"/>
				</g>
			</g>
			<g>
				<g>
					<path class="st0" d="M313.8,324.6c-0.1,0-0.1,0-0.2-0.1s0-0.2,0.1-0.3l24.2-14c0.1-0.1,0.2,0,0.3,0.1c0.1,0.1,0,0.2-0.1,0.3
						L313.8,324.6C313.9,324.6,313.8,324.6,313.8,324.6z"/>
				</g>
				<g>
					<path class="st0" d="M337.2,309.1c0.7-0.4,1.7-0.2,2.1,0.6c0.4,0.7,0.2,1.7-0.6,2.1c-0.7,0.4-1.7,0.2-2.1-0.6
						C336.2,310.5,336.5,309.5,337.2,309.1z"/>
				</g>
				<g>
					<path class="st0" d="M313,323.1c-0.7,0.4-1,1.4-0.6,2.1s1.4,1,2.1,0.6s1-1.4,0.6-2.1C314.7,322.9,313.8,322.6,313,323.1z"/>
				</g>
			</g>
		</g>
		<g>
			<g>
				<g>
					<path class="st0" d="M313.8,324.6h-0.1l-24.2-14c-0.1-0.1-0.1-0.2-0.1-0.3c0.1-0.1,0.2-0.1,0.3-0.1l24.2,14
						c0.1,0.1,0.1,0.2,0.1,0.3C313.9,324.6,313.9,324.6,313.8,324.6z"/>
				</g>
				<g>
					<path class="st0" d="M314.6,323.1c0.7,0.4,1,1.4,0.6,2.1s-1.4,1-2.1,0.6s-1-1.4-0.6-2.1C312.9,322.9,313.8,322.6,314.6,323.1z"
						/>
				</g>
				<g>
					<path class="st0" d="M290.4,309.1c-0.7-0.4-1.7-0.2-2.1,0.6c-0.4,0.7-0.2,1.7,0.6,2.1c0.7,0.4,1.7,0.2,2.1-0.6
						C291.4,310.5,291.1,309.5,290.4,309.1z"/>
				</g>
			</g>
		</g>
		<g>
			<g>
				<g>
					<path class="st0" d="M345.5,277.9l-7.6,4.4c-0.1,0.1-0.1,0.2-0.1,0.3c0,0.1,0.1,0.1,0.2,0.1h0.1l7.4-4.3V277.9z"/>
				</g>
				<g>
					<path class="st0" d="M337.2,281.2c-0.7,0.4-1,1.4-0.6,2.1s1.4,1,2.1,0.6s1-1.4,0.6-2.1C338.9,281,337.9,280.8,337.2,281.2z"/>
				</g>
			</g>
			<g>
				<g>
					<path class="st0" d="M338,310.6c-0.1,0-0.2-0.1-0.2-0.2v-27.9c0-0.1,0.1-0.2,0.2-0.2s0.2,0.1,0.2,0.2v27.9
						C338.2,310.6,338.1,310.6,338,310.6z"/>
				</g>
				<g>
					<path class="st0" d="M336.4,282.5c0-0.9,0.7-1.5,1.5-1.5c0.9,0,1.5,0.7,1.5,1.5s-0.7,1.5-1.5,1.5
						C337.1,284.1,336.4,283.4,336.4,282.5z"/>
				</g>
				<g>
					<path class="st0" d="M336.4,310.4c0,0.9,0.7,1.5,1.5,1.5c0.9,0,1.5-0.7,1.5-1.5c0-0.9-0.7-1.5-1.5-1.5S336.4,309.6,336.4,310.4
						z"/>
				</g>
			</g>
			<g>
				<g>
					<path class="st0" d="M345.5,314.5l-7.4-4.3c-0.1-0.1-0.2,0-0.3,0.1c-0.1,0.1,0,0.2,0.1,0.3l7.6,4.4L345.5,314.5L345.5,314.5z"
						/>
				</g>
				<g>
					<path class="st0" d="M337.2,311.8c-0.7-0.4-1-1.4-0.6-2.1s1.4-1,2.1-0.6s1,1.4,0.6,2.1C338.9,311.9,337.9,312.2,337.2,311.8z"
						/>
				</g>
			</g>
		</g>
		<g>
			<g>
				<g>
					<path class="st0" d="M338,310.6c-0.1,0-0.2-0.1-0.2-0.2v-27.9c0-0.1,0.1-0.2,0.2-0.2s0.2,0.1,0.2,0.2v27.9
						C338.2,310.6,338.1,310.6,338,310.6z"/>
				</g>
				<g>
					<path class="st0" d="M336.4,282.5c0-0.9,0.7-1.5,1.5-1.5s1.5,0.7,1.5,1.5s-0.7,1.5-1.5,1.5
						C337.1,284.1,336.4,283.4,336.4,282.5z"/>
				</g>
				<g>
					<path class="st0" d="M336.4,310.4c0,0.9,0.7,1.5,1.5,1.5s1.5-0.7,1.5-1.5s-0.7-1.5-1.5-1.5S336.4,309.6,336.4,310.4z"/>
				</g>
			</g>
			<g>
				<g>
					<path class="st0" d="M338,282.7h-0.1l-24.2-14c-0.1-0.1-0.1-0.2-0.1-0.3c0.1-0.1,0.2-0.1,0.3-0.1l24.2,14
						c0.1,0.1,0.1,0.2,0.1,0.3C338.1,282.7,338,282.7,338,282.7z"/>
				</g>
				<g>
					<path class="st0" d="M338.7,281.2c0.7,0.4,1,1.4,0.6,2.1s-1.4,1-2.1,0.6s-1-1.4-0.6-2.1C337.1,281,338,280.8,338.7,281.2z"/>
				</g>
				<g>
					<path class="st0" d="M314.6,267.2c-0.7-0.4-1.7-0.2-2.1,0.6c-0.4,0.7-0.2,1.7,0.6,2.1c0.7,0.4,1.7,0.2,2.1-0.6
						C315.5,268.6,315.3,267.7,314.6,267.2z"/>
				</g>
			</g>
			<g>
				<g>
					<path class="st0" d="M289.6,282.7c-0.1,0-0.1,0-0.2-0.1s0-0.2,0.1-0.3l24.2-14c0.1-0.1,0.2,0,0.3,0.1c0.1,0.1,0,0.2-0.1,0.3
						L289.6,282.7C289.7,282.7,289.6,282.7,289.6,282.7z"/>
				</g>
				<g>
					<path class="st0" d="M313,267.2c0.7-0.4,1.7-0.2,2.1,0.6c0.4,0.7,0.2,1.7-0.6,2.1c-0.7,0.4-1.7,0.2-2.1-0.6
						C312,268.6,312.3,267.7,313,267.2z"/>
				</g>
				<g>
					<path class="st0" d="M288.8,281.2c-0.7,0.4-1,1.4-0.6,2.1s1.4,1,2.1,0.6s1-1.4,0.6-2.1C290.5,281,289.6,280.8,288.8,281.2z"/>
				</g>
			</g>
			<g>
				<g>
					<path class="st0" d="M289.6,310.6c-0.1,0-0.2-0.1-0.2-0.2v-27.9c0-0.1,0.1-0.2,0.2-0.2s0.2,0.1,0.2,0.2v27.9
						C289.8,310.6,289.7,310.6,289.6,310.6z"/>
				</g>
				<g>
					<path class="st0" d="M288.1,282.5c0-0.9,0.7-1.5,1.5-1.5c0.9,0,1.5,0.7,1.5,1.5s-0.7,1.5-1.5,1.5
						C288.8,284.1,288.1,283.4,288.1,282.5z"/>
				</g>
				<g>
					<path class="st0" d="M288.1,310.4c0,0.9,0.7,1.5,1.5,1.5s1.5-0.7,1.5-1.5c0-0.9-0.7-1.5-1.5-1.5
						C288.8,308.9,288.1,309.6,288.1,310.4z"/>
				</g>
			</g>
			<g>
				<g>
					<path class="st0" d="M313.8,324.6h-0.1l-24.2-14c-0.1-0.1-0.1-0.2-0.1-0.3c0.1-0.1,0.2-0.1,0.3-0.1l24.2,14
						c0.1,0.1,0.1,0.2,0.1,0.3C313.9,324.6,313.9,324.6,313.8,324.6z"/>
				</g>
				<g>
					<path class="st0" d="M288.8,311.8c-0.7-0.4-1-1.4-0.6-2.1s1.4-1,2.1-0.6s1,1.4,0.6,2.1S289.6,312.2,288.8,311.8z"/>
				</g>
				<g>
					<path class="st0" d="M313,325.7c0.7,0.4,1.7,0.2,2.1-0.6c0.4-0.7,0.2-1.7-0.6-2.1c-0.7-0.4-1.7-0.2-2.1,0.6
						C312,324.4,312.3,325.3,313,325.7z"/>
				</g>
			</g>
			<g>
				<g>
					<path class="st0" d="M313.8,324.6c-0.1,0-0.1,0-0.2-0.1s0-0.2,0.1-0.3l24.2-14c0.1-0.1,0.2,0,0.3,0.1c0.1,0.1,0,0.2-0.1,0.3
						L313.8,324.6C313.9,324.6,313.8,324.6,313.8,324.6z"/>
				</g>
				<g>
					<path class="st0" d="M314.6,325.7c-0.7,0.4-1.7,0.2-2.1-0.6c-0.4-0.7-0.2-1.7,0.6-2.1c0.7-0.4,1.7-0.2,2.1,0.6
						C315.5,324.4,315.3,325.3,314.6,325.7z"/>
				</g>
				<g>
					<path class="st0" d="M338.7,311.8c0.7-0.4,1-1.4,0.6-2.1s-1.4-1-2.1-0.6s-1,1.4-0.6,2.1C337.1,311.9,338,312.2,338.7,311.8z"/>
				</g>
			</g>
		</g>
		<g>
			<g>
				<g>
					<path class="st0" d="M289.6,310.6c-0.1,0-0.2-0.1-0.2-0.2v-27.9c0-0.1,0.1-0.2,0.2-0.2s0.2,0.1,0.2,0.2v27.9
						C289.8,310.6,289.7,310.6,289.6,310.6z"/>
				</g>
				<g>
					<path class="st0" d="M288.1,282.5c0-0.9,0.7-1.5,1.5-1.5s1.5,0.7,1.5,1.5s-0.7,1.5-1.5,1.5S288.1,283.4,288.1,282.5z"/>
				</g>
				<g>
					<path class="st0" d="M288.1,310.4c0,0.9,0.7,1.5,1.5,1.5s1.5-0.7,1.5-1.5s-0.7-1.5-1.5-1.5S288.1,309.6,288.1,310.4z"/>
				</g>
			</g>
			<g>
				<g>
					<path class="st0" d="M289.6,282.7h-0.1l-24.2-14c-0.1-0.1-0.1-0.2-0.1-0.3c0.1-0.1,0.2-0.1,0.3-0.1l24.2,14
						c0.1,0.1,0.1,0.2,0.1,0.3C289.8,282.7,289.7,282.7,289.6,282.7z"/>
				</g>
				<g>
					<path class="st0" d="M290.4,281.2c0.7,0.4,1,1.4,0.6,2.1s-1.4,1-2.1,0.6s-1-1.4-0.6-2.1C288.7,281,289.6,280.8,290.4,281.2z"/>
				</g>
				<g>
					<path class="st0" d="M266.2,267.2c-0.7-0.4-1.7-0.2-2.1,0.6c-0.4,0.7-0.2,1.7,0.6,2.1c0.7,0.4,1.7,0.2,2.1-0.6
						C267.2,268.6,266.9,267.7,266.2,267.2z"/>
				</g>
			</g>
		</g>
		<g>
			<g>
				<g>
					<path class="st0" d="M313.8,268.8c-0.1,0-0.2-0.1-0.2-0.2v-27.9c0-0.1,0.1-0.2,0.2-0.2s0.2,0.1,0.2,0.2v27.9
						C314,268.7,313.9,268.8,313.8,268.8z"/>
				</g>
				<g>
					<path class="st0" d="M312.2,240.6c0-0.8,0.7-1.5,1.5-1.5s1.5,0.7,1.5,1.5c0,0.9-0.7,1.5-1.5,1.5
						C312.9,242.2,312.2,241.5,312.2,240.6z"/>
				</g>
				<g>
					<path class="st0" d="M312.2,268.6c0,0.9,0.7,1.5,1.5,1.5s1.5-0.7,1.5-1.5s-0.7-1.5-1.5-1.5C312.9,267,312.2,267.7,312.2,268.6z
						"/>
				</g>
			</g>
			<g>
				<g>
					<path class="st0" d="M338,282.7h-0.1l-24.2-14c-0.1-0.1-0.1-0.2-0.1-0.3c0.1-0.1,0.2-0.1,0.3-0.1l24.2,14
						c0.1,0.1,0.1,0.2,0.1,0.3C338.1,282.7,338,282.7,338,282.7z"/>
				</g>
				<g>
					<path class="st0" d="M313,269.9c-0.7-0.4-1-1.4-0.6-2.1s1.4-1,2.1-0.6s1,1.4,0.6,2.1C314.7,270.1,313.8,270.3,313,269.9z"/>
				</g>
				<g>
					<path class="st0" d="M337.2,283.9c0.7,0.4,1.7,0.2,2.1-0.6c0.4-0.7,0.2-1.7-0.6-2.1c-0.7-0.4-1.7-0.2-2.1,0.6
						C336.2,282.5,336.5,283.4,337.2,283.9z"/>
				</g>
			</g>
			<g>
				<g>
					<path class="st0" d="M345.5,277.9l-7.6,4.4c-0.1,0.1-0.1,0.2-0.1,0.3c0,0.1,0.1,0.1,0.2,0.1h0.1l7.4-4.3V277.9z"/>
				</g>
				<g>
					<path class="st0" d="M338.7,283.9c-0.7,0.4-1.7,0.2-2.1-0.6c-0.4-0.7-0.2-1.7,0.6-2.1c0.7-0.4,1.7-0.2,2.1,0.6
						C339.7,282.5,339.5,283.4,338.7,283.9z"/>
				</g>
			</g>
		</g>
		<g>
			<g>
				<g>
					<path class="st0" d="M313.8,268.8c-0.1,0-0.2-0.1-0.2-0.2v-27.9c0-0.1,0.1-0.2,0.2-0.2s0.2,0.1,0.2,0.2v27.9
						C314,268.7,313.9,268.8,313.8,268.8z"/>
				</g>
				<g>
					<path class="st0" d="M312.3,240.6c0-0.8,0.7-1.5,1.5-1.5s1.5,0.7,1.5,1.5c0,0.9-0.7,1.5-1.5,1.5
						C312.9,242.2,312.3,241.5,312.3,240.6z"/>
				</g>
				<g>
					<path class="st0" d="M312.3,268.6c0,0.9,0.7,1.5,1.5,1.5s1.5-0.7,1.5-1.5s-0.7-1.5-1.5-1.5C312.9,267,312.3,267.7,312.3,268.6z
						"/>
				</g>
			</g>
			<g>
				<g>
					<path class="st0" d="M313.8,240.8h-0.1l-24.2-14c-0.1-0.1-0.1-0.2-0.1-0.3c0.1-0.1,0.2-0.1,0.3-0.1l24.2,14
						c0.1,0.1,0.1,0.2,0.1,0.3C313.9,240.8,313.9,240.8,313.8,240.8z"/>
				</g>
				<g>
					<path class="st0" d="M314.6,239.3c0.7,0.4,1,1.4,0.6,2.1c-0.4,0.7-1.4,1-2.1,0.6s-1-1.4-0.6-2.1
						C312.9,239.1,313.8,238.9,314.6,239.3z"/>
				</g>
				<g>
					<path class="st0" d="M290.4,225.3c-0.7-0.4-1.7-0.2-2.1,0.6c-0.4,0.7-0.2,1.7,0.6,2.1c0.7,0.4,1.7,0.2,2.1-0.6
						C291.4,226.7,291.1,225.8,290.4,225.3z"/>
				</g>
			</g>
			<g>
				<g>
					<path class="st0" d="M265.4,240.8c-0.1,0-0.1,0-0.2-0.1s0-0.2,0.1-0.3l24.2-14c0.1-0.1,0.2,0,0.3,0.1c0.1,0.1,0,0.2-0.1,0.3
						L265.4,240.8C265.5,240.8,265.5,240.8,265.4,240.8z"/>
				</g>
				<g>
					<path class="st0" d="M288.8,225.3c0.7-0.4,1.7-0.2,2.1,0.6c0.4,0.7,0.2,1.7-0.6,2.1c-0.7,0.4-1.7,0.2-2.1-0.6
						C287.9,226.7,288.1,225.8,288.8,225.3z"/>
				</g>
				<g>
					<path class="st0" d="M264.7,239.3c-0.7,0.4-1,1.4-0.6,2.1c0.4,0.7,1.4,1,2.1,0.6s1-1.4,0.6-2.1
						C266.3,239.1,265.4,238.9,264.7,239.3z"/>
				</g>
			</g>
			<g>
				<g>
					<path class="st0" d="M265.4,268.8c-0.1,0-0.2-0.1-0.2-0.2v-27.9c0-0.1,0.1-0.2,0.2-0.2s0.2,0.1,0.2,0.2v27.9
						C265.6,268.7,265.5,268.8,265.4,268.8z"/>
				</g>
				<g>
					<path class="st0" d="M263.9,240.6c0-0.8,0.7-1.5,1.5-1.5s1.5,0.7,1.5,1.5c0,0.9-0.7,1.5-1.5,1.5
						C264.6,242.2,263.9,241.5,263.9,240.6z"/>
				</g>
				<g>
					<circle class="st0" cx="265.4" cy="268.6" r="1.5"/>
				</g>
			</g>
			<g>
				<g>
					<path class="st0" d="M289.6,282.7h-0.1l-24.2-14c-0.1-0.1-0.1-0.2-0.1-0.3c0.1-0.1,0.2-0.1,0.3-0.1l24.2,14
						c0.1,0.1,0.1,0.2,0.1,0.3C289.8,282.7,289.7,282.7,289.6,282.7z"/>
				</g>
				<g>
					<path class="st0" d="M264.7,269.9c-0.7-0.4-1-1.4-0.6-2.1s1.4-1,2.1-0.6s1,1.4,0.6,2.1C266.3,270.1,265.4,270.3,264.7,269.9z"
						/>
				</g>
				<g>
					<path class="st0" d="M288.8,283.9c0.7,0.4,1.7,0.2,2.1-0.6c0.4-0.7,0.2-1.7-0.6-2.1c-0.7-0.4-1.7-0.2-2.1,0.6
						C287.9,282.5,288.1,283.4,288.8,283.9z"/>
				</g>
			</g>
			<g>
				<g>
					<path class="st0" d="M289.6,282.7c-0.1,0-0.1,0-0.2-0.1s0-0.2,0.1-0.3l24.2-14c0.1-0.1,0.2,0,0.3,0.1c0.1,0.1,0,0.2-0.1,0.3
						L289.6,282.7C289.7,282.7,289.6,282.7,289.6,282.7z"/>
				</g>
				<g>
					<path class="st0" d="M290.4,283.9c-0.7,0.4-1.7,0.2-2.1-0.6c-0.4-0.7-0.2-1.7,0.6-2.1c0.7-0.4,1.7-0.2,2.1,0.6
						C291.4,282.5,291.1,283.4,290.4,283.9z"/>
				</g>
				<g>
					<path class="st0" d="M314.6,269.9c0.7-0.4,1-1.4,0.6-2.1s-1.4-1-2.1-0.6s-1,1.4-0.6,2.1C312.9,270.1,313.8,270.3,314.6,269.9z"
						/>
				</g>
			</g>
		</g>
		<g>
			<g>
				<g>
					<path class="st0" d="M265.4,268.8c-0.1,0-0.2-0.1-0.2-0.2v-27.9c0-0.1,0.1-0.2,0.2-0.2s0.2,0.1,0.2,0.2v27.9
						C265.6,268.7,265.6,268.8,265.4,268.8z"/>
				</g>
				<g>
					<path class="st0" d="M263.9,240.6c0-0.8,0.7-1.5,1.5-1.5s1.5,0.7,1.5,1.5c0,0.9-0.7,1.5-1.5,1.5
						C264.6,242.2,263.9,241.5,263.9,240.6z"/>
				</g>
				<g>
					<path class="st0" d="M263.9,268.6c0,0.9,0.7,1.5,1.5,1.5s1.5-0.7,1.5-1.5s-0.7-1.5-1.5-1.5C264.6,267,263.9,267.7,263.9,268.6z
						"/>
				</g>
			</g>
			<g>
				<g>
					<path class="st0" d="M265.4,240.8h-0.1l-24.2-14c-0.1-0.1-0.1-0.2-0.1-0.3c0.1-0.1,0.2-0.1,0.3-0.1l24.2,14
						c0.1,0.1,0.1,0.2,0.1,0.3S265.5,240.8,265.4,240.8z"/>
				</g>
				<g>
					<path class="st0" d="M266.2,239.3c0.7,0.4,1,1.4,0.6,2.1c-0.4,0.7-1.4,1-2.1,0.6s-1-1.4-0.6-2.1
						C264.5,239.1,265.5,238.9,266.2,239.3z"/>
				</g>
				<g>
					<path class="st0" d="M242,225.3c-0.7-0.4-1.7-0.2-2.1,0.6s-0.2,1.7,0.6,2.1c0.7,0.4,1.7,0.2,2.1-0.6
						C243,226.7,242.8,225.8,242,225.3z"/>
				</g>
			</g>
		</g>
		<g>
			<g>
				<g>
					<path class="st0" d="M338,199h-0.1l-24.2-14c-0.1-0.1-0.1-0.2-0.1-0.3c0.1-0.1,0.2-0.1,0.3-0.1l24.2,14
						c0.1,0.1,0.1,0.2,0.1,0.3C338.1,198.9,338,199,338,199z"/>
				</g>
				<g>
					<path class="st0" d="M338.7,197.4c0.7,0.4,1,1.4,0.6,2.1c-0.4,0.7-1.4,1-2.1,0.6s-1-1.4-0.6-2.1
						C337.1,197.3,338,197,338.7,197.4z"/>
				</g>
				<g>
					<path class="st0" d="M314.6,183.5c-0.7-0.4-1.7-0.2-2.1,0.6c-0.4,0.7-0.2,1.7,0.6,2.1c0.7,0.4,1.7,0.2,2.1-0.6
						C315.5,184.8,315.3,183.9,314.6,183.5z"/>
				</g>
			</g>
			<g>
				<g>
					<path class="st0" d="M289.6,199c-0.1,0-0.1,0-0.2-0.1s0-0.2,0.1-0.3l24.2-14c0.1-0.1,0.2,0,0.3,0.1c0.1,0.1,0,0.2-0.1,0.3
						L289.6,199C289.7,199,289.6,199,289.6,199z"/>
				</g>
				<g>
					<path class="st0" d="M313,183.5c0.7-0.4,1.7-0.2,2.1,0.6c0.4,0.7,0.2,1.7-0.6,2.1c-0.7,0.4-1.7,0.2-2.1-0.6
						S312.3,183.9,313,183.5z"/>
				</g>
				<g>
					<path class="st0" d="M288.8,197.4c-0.7,0.4-1,1.4-0.6,2.1c0.4,0.7,1.4,1,2.1,0.6s1-1.4,0.6-2.1
						C290.5,197.3,289.6,197,288.8,197.4z"/>
				</g>
			</g>
			<g>
				<g>
					<path class="st0" d="M289.6,226.9c-0.1,0-0.2-0.1-0.2-0.2v-27.9c0-0.1,0.1-0.2,0.2-0.2s0.2,0.1,0.2,0.2v27.9
						C289.8,226.8,289.7,226.9,289.6,226.9z"/>
				</g>
				<g>
					<path class="st0" d="M288.1,198.8c0-0.8,0.7-1.5,1.5-1.5c0.9,0,1.5,0.7,1.5,1.5s-0.7,1.5-1.5,1.5
						C288.8,200.3,288.1,199.6,288.1,198.8z"/>
				</g>
				<g>
					<path class="st0" d="M288.1,226.7c0,0.9,0.7,1.5,1.5,1.5s1.5-0.7,1.5-1.5s-0.7-1.5-1.5-1.5
						C288.8,225.1,288.1,225.8,288.1,226.7z"/>
				</g>
			</g>
			<g>
				<g>
					<path class="st0" d="M313.8,240.8h-0.1l-24.2-14c-0.1-0.1-0.1-0.2-0.1-0.3c0.1-0.1,0.2-0.1,0.3-0.1l24.2,14
						c0.1,0.1,0.1,0.2,0.1,0.3C313.9,240.8,313.9,240.8,313.8,240.8z"/>
				</g>
				<g>
					<path class="st0" d="M288.8,228c-0.7-0.4-1-1.4-0.6-2.1c0.4-0.7,1.4-1,2.1-0.6s1,1.4,0.6,2.1
						C290.5,228.2,289.6,228.4,288.8,228z"/>
				</g>
				<g>
					<path class="st0" d="M313,242c0.7,0.4,1.7,0.2,2.1-0.6c0.4-0.7,0.2-1.7-0.6-2.1c-0.7-0.4-1.7-0.2-2.1,0.6
						C312,240.6,312.3,241.5,313,242z"/>
				</g>
			</g>
		</g>
		<g>
			<g>
				<g>
					<path class="st0" d="M289.6,226.9c-0.1,0-0.2-0.1-0.2-0.2v-27.9c0-0.1,0.1-0.2,0.2-0.2s0.2,0.1,0.2,0.2v27.9
						C289.8,226.8,289.7,226.9,289.6,226.9z"/>
				</g>
				<g>
					<path class="st0" d="M288.1,198.8c0-0.9,0.7-1.5,1.5-1.5s1.5,0.7,1.5,1.5s-0.7,1.5-1.5,1.5S288.1,199.6,288.1,198.8z"/>
				</g>
				<g>
					<path class="st0" d="M288.1,226.7c0,0.9,0.7,1.5,1.5,1.5s1.5-0.7,1.5-1.5s-0.7-1.5-1.5-1.5S288.1,225.8,288.1,226.7z"/>
				</g>
			</g>
			<g>
				<g>
					<path class="st0" d="M289.6,199h-0.1l-24.2-14c-0.1-0.1-0.1-0.2-0.1-0.3c0.1-0.1,0.2-0.1,0.3-0.1l24.2,14
						c0.1,0.1,0.1,0.2,0.1,0.3C289.8,198.9,289.7,199,289.6,199z"/>
				</g>
				<g>
					<path class="st0" d="M290.4,197.4c0.7,0.4,1,1.4,0.6,2.1c-0.4,0.7-1.4,1-2.1,0.6s-1-1.4-0.6-2.1
						C288.7,197.3,289.6,197,290.4,197.4z"/>
				</g>
				<g>
					<path class="st0" d="M266.2,183.5c-0.7-0.4-1.7-0.2-2.1,0.6c-0.4,0.7-0.2,1.7,0.6,2.1c0.7,0.4,1.7,0.2,2.1-0.6
						S266.9,183.9,266.2,183.5z"/>
				</g>
			</g>
			<g>
				<g>
					<path class="st0" d="M241.3,199c-0.1,0-0.1,0-0.2-0.1c-0.1-0.1,0-0.2,0.1-0.3l24.2-14c0.1-0.1,0.2,0,0.3,0.1
						c0.1,0.1,0,0.2-0.1,0.3l-24.2,14C241.3,199,241.3,199,241.3,199z"/>
				</g>
				<g>
					<path class="st0" d="M264.7,183.5c0.7-0.4,1.7-0.2,2.1,0.6c0.4,0.7,0.2,1.7-0.6,2.1c-0.7,0.4-1.7,0.2-2.1-0.6
						S263.9,183.9,264.7,183.5z"/>
				</g>
				<g>
					<path class="st0" d="M240.5,197.4c-0.7,0.4-1,1.4-0.6,2.1c0.4,0.7,1.4,1,2.1,0.6c0.7-0.4,1-1.4,0.6-2.1
						C242.2,197.3,241.2,197,240.5,197.4z"/>
				</g>
			</g>
			<g>
				<g>
					<path class="st0" d="M241.3,226.9c-0.1,0-0.2-0.1-0.2-0.2v-27.9c0-0.1,0.1-0.2,0.2-0.2c0.1,0,0.2,0.1,0.2,0.2v27.9
						C241.5,226.8,241.4,226.9,241.3,226.9z"/>
				</g>
				<g>
					<path class="st0" d="M239.7,198.8c0-0.8,0.7-1.5,1.5-1.5c0.9,0,1.5,0.7,1.5,1.5s-0.7,1.5-1.5,1.5S239.7,199.6,239.7,198.8z"/>
				</g>
				<g>
					<path class="st0" d="M239.7,226.7c0,0.9,0.7,1.5,1.5,1.5c0.9,0,1.5-0.7,1.5-1.5s-0.7-1.5-1.5-1.5
						C240.4,225.1,239.7,225.8,239.7,226.7z"/>
				</g>
			</g>
			<g>
				<g>
					<path class="st0" d="M265.4,240.8h-0.1l-24.2-14c-0.1-0.1-0.1-0.2-0.1-0.3c0.1-0.1,0.2-0.1,0.3-0.1l24.2,14
						c0.1,0.1,0.1,0.2,0.1,0.3S265.5,240.8,265.4,240.8z"/>
				</g>
				<g>
					<path class="st0" d="M240.5,228c-0.7-0.4-1-1.4-0.6-2.1c0.4-0.7,1.4-1,2.1-0.6c0.7,0.4,1,1.4,0.6,2.1
						C242.2,228.2,241.2,228.4,240.5,228z"/>
				</g>
				<g>
					<path class="st0" d="M264.7,242c0.7,0.4,1.7,0.2,2.1-0.6c0.4-0.7,0.2-1.7-0.6-2.1c-0.7-0.4-1.7-0.2-2.1,0.6
						C263.7,240.6,263.9,241.5,264.7,242z"/>
				</g>
			</g>
			<g>
				<g>
					<path class="st0" d="M265.4,240.8c-0.1,0-0.1,0-0.2-0.1s0-0.2,0.1-0.3l24.2-14c0.1-0.1,0.2,0,0.3,0.1c0.1,0.1,0,0.2-0.1,0.3
						L265.4,240.8C265.5,240.8,265.5,240.8,265.4,240.8z"/>
				</g>
				<g>
					<path class="st0" d="M266.2,242c-0.7,0.4-1.7,0.2-2.1-0.6c-0.4-0.7-0.2-1.7,0.6-2.1c0.7-0.4,1.7-0.2,2.1,0.6
						C267.2,240.6,266.9,241.5,266.2,242z"/>
				</g>
				<g>
					<path class="st0" d="M290.4,228c0.7-0.4,1-1.4,0.6-2.1c-0.4-0.7-1.4-1-2.1-0.6s-1,1.4-0.6,2.1
						C288.7,228.2,289.6,228.4,290.4,228z"/>
				</g>
			</g>
		</g>
		<g>
			<g>
				<g>
					<path class="st0" d="M241.3,226.9c-0.1,0-0.2-0.1-0.2-0.2v-27.9c0-0.1,0.1-0.2,0.2-0.2c0.1,0,0.2,0.1,0.2,0.2v27.9
						C241.5,226.8,241.4,226.9,241.3,226.9z"/>
				</g>
				<g>
					<path class="st0" d="M239.7,198.8c0-0.9,0.7-1.5,1.5-1.5s1.5,0.7,1.5,1.5s-0.7,1.5-1.5,1.5S239.7,199.6,239.7,198.8z"/>
				</g>
				<g>
					<path class="st0" d="M239.7,226.7c0,0.9,0.7,1.5,1.5,1.5s1.5-0.7,1.5-1.5s-0.7-1.5-1.5-1.5
						C240.4,225.1,239.7,225.8,239.7,226.7z"/>
				</g>
			</g>
		</g>
		<g>
			<g>
				<g>
					<path class="st0" d="M313.8,157.1c-0.1,0-0.1,0-0.2-0.1s0-0.2,0.1-0.3l24.2-14c0.1-0.1,0.2,0,0.3,0.1c0.1,0.1,0,0.2-0.1,0.3
						L313.8,157.1C313.9,157.1,313.8,157.1,313.8,157.1z"/>
				</g>
				<g>
					<path class="st0" d="M337.2,141.6c0.7-0.4,1.7-0.2,2.1,0.6c0.4,0.7,0.2,1.7-0.6,2.1c-0.7,0.4-1.7,0.2-2.1-0.6
						C336.2,143,336.5,142,337.2,141.6z"/>
				</g>
				<g>
					<path class="st0" d="M313,155.5c-0.7,0.4-1,1.4-0.6,2.1c0.4,0.7,1.4,1,2.1,0.6s1-1.4,0.6-2.1S313.8,155.1,313,155.5z"/>
				</g>
			</g>
			<g>
				<g>
					<path class="st0" d="M313.8,185c-0.1,0-0.2-0.1-0.2-0.2v-27.9c0-0.1,0.1-0.2,0.2-0.2s0.2,0.1,0.2,0.2v27.9
						C314,184.9,313.9,185,313.8,185z"/>
				</g>
				<g>
					<path class="st0" d="M312.2,156.9c0-0.8,0.7-1.5,1.5-1.5s1.5,0.7,1.5,1.5s-0.7,1.5-1.5,1.5
						C312.9,158.4,312.2,157.7,312.2,156.9z"/>
				</g>
				<g>
					<path class="st0" d="M312.2,184.8c0,0.8,0.7,1.5,1.5,1.5s1.5-0.7,1.5-1.5s-0.7-1.5-1.5-1.5C312.9,183.3,312.2,184,312.2,184.8z
						"/>
				</g>
			</g>
			<g>
				<g>
					<path class="st0" d="M338,199h-0.1l-24.2-14c-0.1-0.1-0.1-0.2-0.1-0.3c0.1-0.1,0.2-0.1,0.3-0.1l24.2,14
						c0.1,0.1,0.1,0.2,0.1,0.3C338.1,198.9,338,199,338,199z"/>
				</g>
				<g>
					<path class="st0" d="M313,186.1c-0.7-0.4-1-1.4-0.6-2.1c0.4-0.7,1.4-1,2.1-0.6s1,1.4,0.6,2.1
						C314.7,186.3,313.8,186.6,313,186.1z"/>
				</g>
				<g>
					<path class="st0" d="M337.2,200.1c0.7,0.4,1.7,0.2,2.1-0.6c0.4-0.7,0.2-1.7-0.6-2.1c-0.7-0.4-1.7-0.2-2.1,0.6
						C336.2,198.7,336.5,199.7,337.2,200.1z"/>
				</g>
			</g>
		</g>
		<g>
			<g>
				<g>
					<path class="st0" d="M313.8,185c-0.1,0-0.2-0.1-0.2-0.2v-27.9c0-0.1,0.1-0.2,0.2-0.2s0.2,0.1,0.2,0.2v27.9
						C314,184.9,313.9,185,313.8,185z"/>
				</g>
				<g>
					<path class="st0" d="M312.3,156.9c0-0.8,0.7-1.5,1.5-1.5s1.5,0.7,1.5,1.5s-0.7,1.5-1.5,1.5
						C312.9,158.4,312.3,157.7,312.3,156.9z"/>
				</g>
				<g>
					<path class="st0" d="M312.3,184.8c0,0.9,0.7,1.5,1.5,1.5s1.5-0.7,1.5-1.5s-0.7-1.5-1.5-1.5C312.9,183.3,312.3,184,312.3,184.8z
						"/>
				</g>
			</g>
			<g>
				<g>
					<path class="st0" d="M313.8,157.1h-0.1l-24.2-14c-0.1-0.1-0.1-0.2-0.1-0.3c0.1-0.1,0.2-0.1,0.3-0.1l24.2,14
						c0.1,0.1,0.1,0.2,0.1,0.3C313.9,157,313.9,157.1,313.8,157.1z"/>
				</g>
				<g>
					<path class="st0" d="M314.6,155.5c0.7,0.4,1,1.4,0.6,2.1c-0.4,0.7-1.4,1-2.1,0.6s-1-1.4-0.6-2.1S313.8,155.1,314.6,155.5z"/>
				</g>
				<g>
					<path class="st0" d="M290.4,141.6c-0.7-0.4-1.7-0.2-2.1,0.6c-0.4,0.7-0.2,1.7,0.6,2.1c0.7,0.4,1.7,0.2,2.1-0.6
						C291.4,143,291.1,142,290.4,141.6z"/>
				</g>
			</g>
			<g>
				<g>
					<path class="st0" d="M265.4,157.1c-0.1,0-0.1,0-0.2-0.1s0-0.2,0.1-0.3l24.2-14c0.1-0.1,0.2,0,0.3,0.1c0.1,0.1,0,0.2-0.1,0.3
						L265.4,157.1C265.5,157.1,265.5,157.1,265.4,157.1z"/>
				</g>
				<g>
					<path class="st0" d="M288.8,141.6c0.7-0.4,1.7-0.2,2.1,0.6c0.4,0.7,0.2,1.7-0.6,2.1c-0.7,0.4-1.7,0.2-2.1-0.6
						C287.9,143,288.1,142,288.8,141.6z"/>
				</g>
				<g>
					<path class="st0" d="M264.7,155.5c-0.7,0.4-1,1.4-0.6,2.1c0.4,0.7,1.4,1,2.1,0.6s1-1.4,0.6-2.1
						C266.3,155.4,265.4,155.1,264.7,155.5z"/>
				</g>
			</g>
			<g>
				<g>
					<path class="st0" d="M265.4,185c-0.1,0-0.2-0.1-0.2-0.2v-27.9c0-0.1,0.1-0.2,0.2-0.2s0.2,0.1,0.2,0.2v27.9
						C265.6,184.9,265.5,185,265.4,185z"/>
				</g>
				<g>
					<path class="st0" d="M263.9,156.9c0-0.8,0.7-1.5,1.5-1.5s1.5,0.7,1.5,1.5s-0.7,1.5-1.5,1.5S263.9,157.7,263.9,156.9z"/>
				</g>
				<g>
					<path class="st0" d="M263.9,184.8c0,0.8,0.7,1.5,1.5,1.5c0.9,0,1.5-0.7,1.5-1.5s-0.7-1.5-1.5-1.5S263.9,184,263.9,184.8z"/>
				</g>
			</g>
			<g>
				<g>
					<path class="st0" d="M289.6,199h-0.1l-24.2-14c-0.1-0.1-0.1-0.2-0.1-0.3c0.1-0.1,0.2-0.1,0.3-0.1l24.2,14
						c0.1,0.1,0.1,0.2,0.1,0.3C289.8,198.9,289.7,199,289.6,199z"/>
				</g>
				<g>
					<path class="st0" d="M264.7,186.1c-0.7-0.4-1-1.4-0.6-2.1c0.4-0.7,1.4-1,2.1-0.6s1,1.4,0.6,2.1
						C266.3,186.3,265.4,186.6,264.7,186.1z"/>
				</g>
				<g>
					<path class="st0" d="M288.8,200.1c0.7,0.4,1.7,0.2,2.1-0.6c0.4-0.7,0.2-1.7-0.6-2.1c-0.7-0.4-1.7-0.2-2.1,0.6
						C287.9,198.7,288.1,199.7,288.8,200.1z"/>
				</g>
			</g>
			<g>
				<g>
					<path class="st0" d="M289.6,199c-0.1,0-0.1,0-0.2-0.1s0-0.2,0.1-0.3l24.2-14c0.1-0.1,0.2,0,0.3,0.1c0.1,0.1,0,0.2-0.1,0.3
						L289.6,199C289.7,199,289.6,199,289.6,199z"/>
				</g>
				<g>
					<path class="st0" d="M290.4,200.1c-0.7,0.4-1.7,0.2-2.1-0.6c-0.4-0.7-0.2-1.7,0.6-2.1c0.7-0.4,1.7-0.2,2.1,0.6
						C291.4,198.7,291.1,199.7,290.4,200.1z"/>
				</g>
				<g>
					<path class="st0" d="M314.6,186.1c0.7-0.4,1-1.4,0.6-2.1c-0.4-0.7-1.4-1-2.1-0.6s-1,1.4-0.6,2.1
						C312.9,186.3,313.8,186.6,314.6,186.1z"/>
				</g>
			</g>
		</g>
		<g>
			<g>
				<g>
					<path class="st0" d="M265.4,185c-0.1,0-0.2-0.1-0.2-0.2v-27.9c0-0.1,0.1-0.2,0.2-0.2s0.2,0.1,0.2,0.2v27.9
						C265.6,184.9,265.6,185,265.4,185z"/>
				</g>
				<g>
					<path class="st0" d="M263.9,156.9c0-0.8,0.7-1.5,1.5-1.5s1.5,0.7,1.5,1.5s-0.7,1.5-1.5,1.5S263.9,157.7,263.9,156.9z"/>
				</g>
				<g>
					<path class="st0" d="M263.9,184.8c0,0.9,0.7,1.5,1.5,1.5s1.5-0.7,1.5-1.5s-0.7-1.5-1.5-1.5S263.9,184,263.9,184.8z"/>
				</g>
			</g>
			<g>
				<g>
					<path class="st0" d="M265.4,157.1h-0.1l-24.2-14c-0.1-0.1-0.1-0.2-0.1-0.3c0.1-0.1,0.2-0.1,0.3-0.1l24.2,14
						c0.1,0.1,0.1,0.2,0.1,0.3C265.6,157,265.5,157.1,265.4,157.1z"/>
				</g>
				<g>
					<path class="st0" d="M266.2,155.5c0.7,0.4,1,1.4,0.6,2.1c-0.4,0.7-1.4,1-2.1,0.6s-1-1.4-0.6-2.1S265.5,155.1,266.2,155.5z"/>
				</g>
				<g>
					<path class="st0" d="M242,141.6c-0.7-0.4-1.7-0.2-2.1,0.6c-0.4,0.7-0.2,1.7,0.6,2.1c0.7,0.4,1.7,0.2,2.1-0.6
						C243,143,242.8,142,242,141.6z"/>
				</g>
			</g>
			<g>
				<g>
					<path class="st0" d="M241.3,199c-0.1,0-0.1,0-0.2-0.1c-0.1-0.1,0-0.2,0.1-0.3l24.2-14c0.1-0.1,0.2,0,0.3,0.1
						c0.1,0.1,0,0.2-0.1,0.3l-24.2,14C241.3,199,241.3,199,241.3,199z"/>
				</g>
				<g>
					<path class="st0" d="M242,200.1c-0.7,0.4-1.7,0.2-2.1-0.6c-0.4-0.7-0.2-1.7,0.6-2.1c0.7-0.4,1.7-0.2,2.1,0.6
						C243,198.7,242.8,199.7,242,200.1z"/>
				</g>
				<g>
					<path class="st0" d="M266.2,186.1c0.7-0.4,1-1.4,0.6-2.1c-0.4-0.7-1.4-1-2.1-0.6s-1,1.4-0.6,2.1
						C264.5,186.3,265.5,186.6,266.2,186.1z"/>
				</g>
			</g>
		</g>
		<g>
			<g>
				<g>
					<path class="st0" d="M345.5,110.4l-7.6,4.4c-0.1,0.1-0.1,0.2-0.1,0.3c0,0.1,0.1,0.1,0.2,0.1h0.1l7.4-4.3V110.4z"/>
				</g>
				<g>
					<path class="st0" d="M337.2,113.7c-0.7,0.4-1,1.4-0.6,2.1s1.4,1,2.1,0.6s1-1.4,0.6-2.1C338.9,113.5,337.9,113.2,337.2,113.7z"
						/>
				</g>
			</g>
			<g>
				<g>
					<path class="st0" d="M338,143.1c-0.1,0-0.2-0.1-0.2-0.2V115c0-0.1,0.1-0.2,0.2-0.2s0.2,0.1,0.2,0.2v27.9
						C338.2,143,338.1,143.1,338,143.1z"/>
				</g>
				<g>
					<path class="st0" d="M336.4,115c0-0.8,0.7-1.5,1.5-1.5c0.9,0,1.5,0.7,1.5,1.5s-0.7,1.5-1.5,1.5S336.4,115.9,336.4,115z"/>
				</g>
				<g>
					<path class="st0" d="M336.4,142.9c0,0.8,0.7,1.5,1.5,1.5c0.9,0,1.5-0.7,1.5-1.5c0-0.9-0.7-1.5-1.5-1.5S336.4,142.1,336.4,142.9
						z"/>
				</g>
			</g>
		</g>
		<g>
			<g>
				<g>
					<path class="st0" d="M338,143.1c-0.1,0-0.2-0.1-0.2-0.2V115c0-0.1,0.1-0.2,0.2-0.2s0.2,0.1,0.2,0.2v27.9
						C338.2,143,338.1,143.1,338,143.1z"/>
				</g>
				<g>
					<path class="st0" d="M336.4,115c0-0.8,0.7-1.5,1.5-1.5s1.5,0.7,1.5,1.5s-0.7,1.5-1.5,1.5S336.4,115.9,336.4,115z"/>
				</g>
				<g>
					<path class="st0" d="M336.4,142.9c0,0.8,0.7,1.5,1.5,1.5s1.5-0.7,1.5-1.5c0-0.9-0.7-1.5-1.5-1.5S336.4,142.1,336.4,142.9z"/>
				</g>
			</g>
			<g>
				<g>
					<path class="st0" d="M338,115.2h-0.1l-24.2-14c-0.1-0.1-0.1-0.2-0.1-0.3c0.1-0.1,0.2-0.1,0.3-0.1l24.2,14
						c0.1,0.1,0.1,0.2,0.1,0.3C338.1,115.2,338,115.2,338,115.2z"/>
				</g>
				<g>
					<path class="st0" d="M338.7,113.7c0.7,0.4,1,1.4,0.6,2.1s-1.4,1-2.1,0.6s-1-1.4-0.6-2.1C337.1,113.5,338,113.2,338.7,113.7z"/>
				</g>
				<g>
					<path class="st0" d="M314.6,99.7c-0.7-0.4-1.7-0.2-2.1,0.6c-0.4,0.7-0.2,1.7,0.6,2.1c0.7,0.4,1.7,0.2,2.1-0.6
						C315.5,101.1,315.3,100.1,314.6,99.7z"/>
				</g>
			</g>
			<g>
				<g>
					<path class="st0" d="M289.6,115.2c-0.1,0-0.1,0-0.2-0.1s0-0.2,0.1-0.3l24.2-14c0.1-0.1,0.2,0,0.3,0.1c0.1,0.1,0,0.2-0.1,0.3
						L289.6,115.2C289.7,115.2,289.6,115.2,289.6,115.2z"/>
				</g>
				<g>
					<path class="st0" d="M313,99.7c0.7-0.4,1.7-0.2,2.1,0.6c0.4,0.7,0.2,1.7-0.6,2.1c-0.7,0.4-1.7,0.2-2.1-0.6
						C312,101.1,312.3,100.1,313,99.7z"/>
				</g>
				<g>
					<path class="st0" d="M288.8,113.7c-0.7,0.4-1,1.4-0.6,2.1s1.4,1,2.1,0.6s1-1.4,0.6-2.1C290.5,113.5,289.6,113.2,288.8,113.7z"
						/>
				</g>
			</g>
			<g>
				<g>
					<path class="st0" d="M289.6,143.1c-0.1,0-0.2-0.1-0.2-0.2V115c0-0.1,0.1-0.2,0.2-0.2s0.2,0.1,0.2,0.2v27.9
						C289.8,143,289.7,143.1,289.6,143.1z"/>
				</g>
				<g>
					<path class="st0" d="M288.1,115c0-0.8,0.7-1.5,1.5-1.5c0.9,0,1.5,0.7,1.5,1.5s-0.7,1.5-1.5,1.5
						C288.8,116.5,288.1,115.9,288.1,115z"/>
				</g>
				<g>
					<path class="st0" d="M288.1,142.9c0,0.8,0.7,1.5,1.5,1.5s1.5-0.7,1.5-1.5c0-0.9-0.7-1.5-1.5-1.5
						C288.8,141.4,288.1,142.1,288.1,142.9z"/>
				</g>
			</g>
			<g>
				<g>
					<path class="st0" d="M313.8,157.1h-0.1l-24.2-14c-0.1-0.1-0.1-0.2-0.1-0.3c0.1-0.1,0.2-0.1,0.3-0.1l24.2,14
						c0.1,0.1,0.1,0.2,0.1,0.3C313.9,157,313.9,157.1,313.8,157.1z"/>
				</g>
				<g>
					<path class="st0" d="M288.8,144.3c-0.7-0.4-1-1.4-0.6-2.1c0.4-0.7,1.4-1,2.1-0.6s1,1.4,0.6,2.1
						C290.5,144.4,289.6,144.7,288.8,144.3z"/>
				</g>
				<g>
					<path class="st0" d="M313,158.2c0.7,0.4,1.7,0.2,2.1-0.6c0.4-0.7,0.2-1.7-0.6-2.1c-0.7-0.4-1.7-0.2-2.1,0.6
						C312,156.8,312.3,157.8,313,158.2z"/>
				</g>
			</g>
			<g>
				<g>
					<path class="st0" d="M313.8,157.1c-0.1,0-0.1,0-0.2-0.1s0-0.2,0.1-0.3l24.2-14c0.1-0.1,0.2,0,0.3,0.1c0.1,0.1,0,0.2-0.1,0.3
						L313.8,157.1C313.9,157.1,313.8,157.1,313.8,157.1z"/>
				</g>
				<g>
					<path class="st0" d="M314.6,158.2c-0.7,0.4-1.7,0.2-2.1-0.6c-0.4-0.7-0.2-1.7,0.6-2.1c0.7-0.4,1.7-0.2,2.1,0.6
						C315.5,156.8,315.3,157.8,314.6,158.2z"/>
				</g>
				<g>
					<path class="st0" d="M338.7,144.3c0.7-0.4,1-1.4,0.6-2.1c-0.4-0.7-1.4-1-2.1-0.6s-1,1.4-0.6,2.1
						C337.1,144.4,338,144.7,338.7,144.3z"/>
				</g>
			</g>
		</g>
		<g>
			<g>
				<g>
					<path class="st0" d="M289.6,143.1c-0.1,0-0.2-0.1-0.2-0.2V115c0-0.1,0.1-0.2,0.2-0.2s0.2,0.1,0.2,0.2v27.9
						C289.8,143,289.7,143.1,289.6,143.1z"/>
				</g>
				<g>
					<path class="st0" d="M288.1,115c0-0.8,0.7-1.5,1.5-1.5s1.5,0.7,1.5,1.5s-0.7,1.5-1.5,1.5S288.1,115.9,288.1,115z"/>
				</g>
				<g>
					<path class="st0" d="M288.1,142.9c0,0.8,0.7,1.5,1.5,1.5s1.5-0.7,1.5-1.5c0-0.9-0.7-1.5-1.5-1.5S288.1,142.1,288.1,142.9z"/>
				</g>
			</g>
			<g>
				<g>
					<path class="st0" d="M289.6,115.2h-0.1l-24.2-14c-0.1-0.1-0.1-0.2-0.1-0.3c0.1-0.1,0.2-0.1,0.3-0.1l24.2,14
						c0.1,0.1,0.1,0.2,0.1,0.3C289.8,115.2,289.7,115.2,289.6,115.2z"/>
				</g>
				<g>
					<path class="st0" d="M290.4,113.7c0.7,0.4,1,1.4,0.6,2.1s-1.4,1-2.1,0.6s-1-1.4-0.6-2.1C288.7,113.5,289.6,113.2,290.4,113.7z"
						/>
				</g>
				<g>
					<path class="st0" d="M266.2,99.7c-0.7-0.4-1.7-0.2-2.1,0.6c-0.4,0.7-0.2,1.7,0.6,2.1c0.7,0.4,1.7,0.2,2.1-0.6
						C267.2,101.1,266.9,100.1,266.2,99.7z"/>
				</g>
			</g>
			<g>
				<g>
					<path class="st0" d="M241.3,115.2c-0.1,0-0.1,0-0.2-0.1c-0.1-0.1,0-0.2,0.1-0.3l24.2-14c0.1-0.1,0.2,0,0.3,0.1
						c0.1,0.1,0,0.2-0.1,0.3l-24.2,14C241.3,115.2,241.3,115.2,241.3,115.2z"/>
				</g>
				<g>
					<path class="st0" d="M264.7,99.7c0.7-0.4,1.7-0.2,2.1,0.6c0.4,0.7,0.2,1.7-0.6,2.1c-0.7,0.4-1.7,0.2-2.1-0.6
						C263.7,101.1,263.9,100.1,264.7,99.7z"/>
				</g>
				<g>
					<path class="st0" d="M240.5,113.7c-0.7,0.4-1,1.4-0.6,2.1s1.4,1,2.1,0.6c0.7-0.4,1-1.4,0.6-2.1
						C242.2,113.5,241.2,113.2,240.5,113.7z"/>
				</g>
			</g>
			<g>
				<g>
					<path class="st0" d="M241.3,143.1c-0.1,0-0.2-0.1-0.2-0.2V115c0-0.1,0.1-0.2,0.2-0.2c0.1,0,0.2,0.1,0.2,0.2v27.9
						C241.5,143,241.4,143.1,241.3,143.1z"/>
				</g>
				<g>
					<path class="st0" d="M239.7,115c0-0.8,0.7-1.5,1.5-1.5c0.9,0,1.5,0.7,1.5,1.5s-0.7,1.5-1.5,1.5S239.7,115.9,239.7,115z"/>
				</g>
				<g>
					<path class="st0" d="M239.7,142.9c0,0.8,0.7,1.5,1.5,1.5c0.9,0,1.5-0.7,1.5-1.5c0-0.9-0.7-1.5-1.5-1.5S239.7,142.1,239.7,142.9
						z"/>
				</g>
			</g>
			<g>
				<g>
					<path class="st0" d="M265.4,157.1h-0.1l-24.2-14c-0.1-0.1-0.1-0.2-0.1-0.3c0.1-0.1,0.2-0.1,0.3-0.1l24.2,14
						c0.1,0.1,0.1,0.2,0.1,0.3C265.6,157,265.5,157.1,265.4,157.1z"/>
				</g>
				<g>
					<path class="st0" d="M240.5,144.3c-0.7-0.4-1-1.4-0.6-2.1c0.4-0.7,1.4-1,2.1-0.6c0.7,0.4,1,1.4,0.6,2.1
						C242.2,144.4,241.2,144.7,240.5,144.3z"/>
				</g>
				<g>
					<path class="st0" d="M264.7,158.2c0.7,0.4,1.7,0.2,2.1-0.6c0.4-0.7,0.2-1.7-0.6-2.1c-0.7-0.4-1.7-0.2-2.1,0.6
						C263.7,156.8,263.9,157.8,264.7,158.2z"/>
				</g>
			</g>
			<g>
				<g>
					<path class="st0" d="M265.4,157.1c-0.1,0-0.1,0-0.2-0.1s0-0.2,0.1-0.3l24.2-14c0.1-0.1,0.2,0,0.3,0.1c0.1,0.1,0,0.2-0.1,0.3
						L265.4,157.1C265.5,157.1,265.5,157.1,265.4,157.1z"/>
				</g>
				<g>
					<path class="st0" d="M266.2,158.2c-0.7,0.4-1.7,0.2-2.1-0.6c-0.4-0.7-0.2-1.7,0.6-2.1c0.7-0.4,1.7-0.2,2.1,0.6
						C267.2,156.8,266.9,157.8,266.2,158.2z"/>
				</g>
				<g>
					<path class="st0" d="M290.4,144.3c0.7-0.4,1-1.4,0.6-2.1c-0.4-0.7-1.4-1-2.1-0.6s-1,1.4-0.6,2.1
						C288.7,144.4,289.6,144.7,290.4,144.3z"/>
				</g>
			</g>
		</g>
		<g>
			<g>
				<g>
					<path class="st0" d="M241.3,143.1c-0.1,0-0.2-0.1-0.2-0.2V115c0-0.1,0.1-0.2,0.2-0.2c0.1,0,0.2,0.1,0.2,0.2v27.9
						C241.5,143,241.4,143.1,241.3,143.1z"/>
				</g>
				<g>
					<path class="st0" d="M239.7,115c0-0.8,0.7-1.5,1.5-1.5s1.5,0.7,1.5,1.5s-0.7,1.5-1.5,1.5S239.7,115.9,239.7,115z"/>
				</g>
				<g>
					<path class="st0" d="M239.7,142.9c0,0.8,0.7,1.5,1.5,1.5s1.5-0.7,1.5-1.5c0-0.9-0.7-1.5-1.5-1.5S239.7,142.1,239.7,142.9z"/>
				</g>
			</g>
			<g>
				<g>
					<path class="st0" d="M241.3,115.2h-0.1l-24.2-14c-0.1-0.1-0.1-0.2-0.1-0.3c0.1-0.1,0.2-0.1,0.3-0.1l24.2,14
						c0.1,0.1,0.1,0.2,0.1,0.3C241.4,115.2,241.3,115.2,241.3,115.2z"/>
				</g>
				<g>
					<path class="st0" d="M242,113.7c0.7,0.4,1,1.4,0.6,2.1s-1.4,1-2.1,0.6c-0.7-0.4-1-1.4-0.6-2.1S241.3,113.2,242,113.7z"/>
				</g>
				<g>
					<path class="st0" d="M217.9,99.7c-0.7-0.4-1.7-0.2-2.1,0.6c-0.4,0.7-0.2,1.7,0.6,2.1c0.7,0.4,1.7,0.2,2.1-0.6
						C218.8,101.1,218.6,100.1,217.9,99.7z"/>
				</g>
			</g>
		</g>
		<g>
			<g>
				<g>
					<path class="st0" d="M338,115.2h-0.1l-24.2-14c-0.1-0.1-0.1-0.2-0.1-0.3c0.1-0.1,0.2-0.1,0.3-0.1l24.2,14
						c0.1,0.1,0.1,0.2,0.1,0.3C338.1,115.2,338,115.2,338,115.2z"/>
				</g>
				<g>
					<path class="st0" d="M313,102.4c-0.7-0.4-1-1.4-0.6-2.1s1.4-1,2.1-0.6s1,1.4,0.6,2.1S313.8,102.8,313,102.4z"/>
				</g>
				<g>
					<path class="st0" d="M337.2,116.3c0.7,0.4,1.7,0.2,2.1-0.6c0.4-0.7,0.2-1.7-0.6-2.1c-0.7-0.4-1.7-0.2-2.1,0.6
						S336.5,115.9,337.2,116.3z"/>
				</g>
			</g>
			<g>
				<g>
					<path class="st0" d="M345.5,110.4l-7.6,4.4c-0.1,0.1-0.1,0.2-0.1,0.3c0,0.1,0.1,0.1,0.2,0.1h0.1l7.4-4.3V110.4z"/>
				</g>
				<g>
					<path class="st0" d="M338.7,116.3c-0.7,0.4-1.7,0.2-2.1-0.6c-0.4-0.7-0.2-1.7,0.6-2.1c0.7-0.4,1.7-0.2,2.1,0.6
						S339.5,115.9,338.7,116.3z"/>
				</g>
			</g>
		</g>
		<g>
			<g>
				<g>
					<path class="st0" d="M265.4,73.3c-0.1,0-0.1,0-0.2-0.1s0-0.2,0.1-0.3l24.2-14c0.1-0.1,0.2,0,0.3,0.1c0.1,0.1,0,0.2-0.1,0.3
						L265.4,73.3C265.5,73.3,265.5,73.3,265.4,73.3z"/>
				</g>
				<g>
					<path class="st0" d="M288.8,57.8c0.7-0.4,1.7-0.2,2.1,0.6c0.4,0.7,0.2,1.7-0.6,2.1c-0.7,0.4-1.7,0.2-2.1-0.6
						C287.9,59.2,288.1,58.3,288.8,57.8z"/>
				</g>
				<g>
					<path class="st0" d="M264.7,71.8c-0.7,0.4-1,1.4-0.6,2.1s1.4,1,2.1,0.6s1-1.4,0.6-2.1C266.3,71.6,265.4,71.4,264.7,71.8z"/>
				</g>
			</g>
			<g>
				<g>
					<path class="st0" d="M265.4,101.2c-0.1,0-0.2-0.1-0.2-0.2V73.1c0-0.1,0.1-0.2,0.2-0.2s0.2,0.1,0.2,0.2V101
						C265.6,101.2,265.5,101.2,265.4,101.2z"/>
				</g>
				<g>
					<path class="st0" d="M263.9,73.1c0-0.8,0.7-1.5,1.5-1.5s1.5,0.7,1.5,1.5c0,0.9-0.7,1.5-1.5,1.5C264.6,74.7,263.9,74,263.9,73.1
						z"/>
				</g>
				<g>
					<circle class="st0" cx="265.4" cy="101" r="1.5"/>
				</g>
			</g>
			<g>
				<g>
					<path class="st0" d="M289.6,115.2h-0.1l-24.2-14c-0.1-0.1-0.1-0.2-0.1-0.3c0.1-0.1,0.2-0.1,0.3-0.1l24.2,14
						c0.1,0.1,0.1,0.2,0.1,0.3C289.8,115.2,289.7,115.2,289.6,115.2z"/>
				</g>
				<g>
					<path class="st0" d="M264.7,102.4c-0.7-0.4-1-1.4-0.6-2.1s1.4-1,2.1-0.6s1,1.4,0.6,2.1C266.3,102.5,265.4,102.8,264.7,102.4z"
						/>
				</g>
				<g>
					<path class="st0" d="M288.8,116.3c0.7,0.4,1.7,0.2,2.1-0.6c0.4-0.7,0.2-1.7-0.6-2.1c-0.7-0.4-1.7-0.2-2.1,0.6
						C287.9,115,288.1,115.9,288.8,116.3z"/>
				</g>
			</g>
			<g>
				<g>
					<path class="st0" d="M289.6,115.2c-0.1,0-0.1,0-0.2-0.1s0-0.2,0.1-0.3l24.2-14c0.1-0.1,0.2,0,0.3,0.1c0.1,0.1,0,0.2-0.1,0.3
						L289.6,115.2C289.7,115.2,289.6,115.2,289.6,115.2z"/>
				</g>
				<g>
					<path class="st0" d="M290.4,116.3c-0.7,0.4-1.7,0.2-2.1-0.6c-0.4-0.7-0.2-1.7,0.6-2.1c0.7-0.4,1.7-0.2,2.1,0.6
						S291.1,115.9,290.4,116.3z"/>
				</g>
				<g>
					<path class="st0" d="M314.6,102.4c0.7-0.4,1-1.4,0.6-2.1s-1.4-1-2.1-0.6s-1,1.4-0.6,2.1S313.8,102.8,314.6,102.4z"/>
				</g>
			</g>
		</g>
		<g>
			<g>
				<g>
					<path class="st0" d="M265.4,101.2c-0.1,0-0.2-0.1-0.2-0.2V73.1c0-0.1,0.1-0.2,0.2-0.2s0.2,0.1,0.2,0.2V101
						C265.6,101.2,265.6,101.2,265.4,101.2z"/>
				</g>
				<g>
					<path class="st0" d="M263.9,73.1c0-0.8,0.7-1.5,1.5-1.5s1.5,0.7,1.5,1.5c0,0.9-0.7,1.5-1.5,1.5C264.6,74.7,263.9,74,263.9,73.1
						z"/>
				</g>
				<g>
					<path class="st0" d="M263.9,101c0,0.8,0.7,1.5,1.5,1.5s1.5-0.7,1.5-1.5s-0.7-1.5-1.5-1.5S263.9,100.2,263.9,101z"/>
				</g>
			</g>
			<g>
				<g>
					<path class="st0" d="M265.4,73.3h-0.1l-24.2-14c-0.1-0.1-0.1-0.2-0.1-0.3c0.1-0.1,0.2-0.1,0.3-0.1l24.2,14
						c0.1,0.1,0.1,0.2,0.1,0.3C265.6,73.3,265.5,73.3,265.4,73.3z"/>
				</g>
				<g>
					<path class="st0" d="M266.2,71.8c0.7,0.4,1,1.4,0.6,2.1s-1.4,1-2.1,0.6s-1-1.4-0.6-2.1C264.5,71.6,265.5,71.4,266.2,71.8z"/>
				</g>
				<g>
					<path class="st0" d="M242,57.8c-0.7-0.4-1.7-0.2-2.1,0.6s-0.2,1.7,0.6,2.1c0.7,0.4,1.7,0.2,2.1-0.6
						C243,59.2,242.8,58.3,242,57.8z"/>
				</g>
			</g>
			<g>
				<g>
					<path class="st0" d="M217.1,73.3c-0.1,0-0.1,0-0.2-0.1c-0.1-0.1,0-0.2,0.1-0.3l24.2-14c0.1-0.1,0.2,0,0.3,0.1s0,0.2-0.1,0.3
						l-24.2,14C217.2,73.3,217.1,73.3,217.1,73.3z"/>
				</g>
				<g>
					<path class="st0" d="M240.5,57.8c0.7-0.4,1.7-0.2,2.1,0.6c0.4,0.7,0.2,1.7-0.6,2.1c-0.7,0.4-1.7,0.2-2.1-0.6
						C239.5,59.2,239.8,58.3,240.5,57.8z"/>
				</g>
				<g>
					<path class="st0" d="M216.3,71.8c-0.7,0.4-1,1.4-0.6,2.1s1.4,1,2.1,0.6c0.7-0.4,1-1.4,0.6-2.1C218,71.6,217,71.4,216.3,71.8z"
						/>
				</g>
			</g>
			<g>
				<g>
					<path class="st0" d="M217.1,101.2c-0.1,0-0.2-0.1-0.2-0.2V73.1c0-0.1,0.1-0.2,0.2-0.2c0.1,0,0.2,0.1,0.2,0.2V101
						C217.3,101.2,217.2,101.2,217.1,101.2z"/>
				</g>
				<g>
					<path class="st0" d="M215.5,73.1c0-0.8,0.7-1.5,1.5-1.5s1.5,0.7,1.5,1.5c0,0.9-0.7,1.5-1.5,1.5C216.2,74.7,215.5,74,215.5,73.1
						z"/>
				</g>
				<g>
					<path class="st0" d="M215.5,101c0,0.8,0.7,1.5,1.5,1.5c0.9,0,1.5-0.7,1.5-1.5s-0.7-1.5-1.5-1.5S215.5,100.2,215.5,101z"/>
				</g>
			</g>
			<g>
				<g>
					<path class="st0" d="M241.3,115.2h-0.1l-24.2-14c-0.1-0.1-0.1-0.2-0.1-0.3c0.1-0.1,0.2-0.1,0.3-0.1l24.2,14
						c0.1,0.1,0.1,0.2,0.1,0.3C241.4,115.2,241.3,115.2,241.3,115.2z"/>
				</g>
				<g>
					<path class="st0" d="M216.3,102.4c-0.7-0.4-1-1.4-0.6-2.1s1.4-1,2.1-0.6c0.7,0.4,1,1.4,0.6,2.1
						C218,102.5,217.1,102.8,216.3,102.4z"/>
				</g>
				<g>
					<ellipse class="st0" cx="241.3" cy="115" rx="1.5" ry="1.5"/>
				</g>
			</g>
			<g>
				<g>
					<path class="st0" d="M241.3,115.2c-0.1,0-0.1,0-0.2-0.1c-0.1-0.1,0-0.2,0.1-0.3l24.2-14c0.1-0.1,0.2,0,0.3,0.1
						c0.1,0.1,0,0.2-0.1,0.3l-24.2,14C241.3,115.2,241.3,115.2,241.3,115.2z"/>
				</g>
				<g>
					<path class="st0" d="M242,116.3c-0.7,0.4-1.7,0.2-2.1-0.6s-0.2-1.7,0.6-2.1c0.7-0.4,1.7-0.2,2.1,0.6
						C243,115,242.8,115.9,242,116.3z"/>
				</g>
				<g>
					<path class="st0" d="M266.2,102.4c0.7-0.4,1-1.4,0.6-2.1s-1.4-1-2.1-0.6s-1,1.4-0.6,2.1S265.5,102.8,266.2,102.4z"/>
				</g>
			</g>
		</g>
		<g>
			<g>
				<g>
					<path class="st0" d="M217.1,101.2c-0.1,0-0.2-0.1-0.2-0.2V73.1c0-0.1,0.1-0.2,0.2-0.2c0.1,0,0.2,0.1,0.2,0.2V101
						C217.3,101.2,217.2,101.2,217.1,101.2z"/>
				</g>
				<g>
					<path class="st0" d="M215.5,73.1c0-0.8,0.7-1.5,1.5-1.5s1.5,0.7,1.5,1.5c0,0.9-0.7,1.5-1.5,1.5C216.2,74.7,215.5,74,215.5,73.1
						z"/>
				</g>
				<g>
					<path class="st0" d="M215.5,101c0,0.8,0.7,1.5,1.5,1.5s1.5-0.7,1.5-1.5s-0.7-1.5-1.5-1.5S215.5,100.2,215.5,101z"/>
				</g>
			</g>
			<g>
				<g>
					<path class="st0" d="M217.1,73.3H217l-24.2-14c-0.1-0.1-0.1-0.2-0.1-0.3c0.1-0.1,0.2-0.1,0.3-0.1l24.2,14
						c0.1,0.1,0.1,0.2,0.1,0.3C217.2,73.3,217.2,73.3,217.1,73.3z"/>
				</g>
				<g>
					<path class="st0" d="M217.9,71.8c0.7,0.4,1,1.4,0.6,2.1s-1.4,1-2.1,0.6c-0.7-0.4-1-1.4-0.6-2.1
						C216.2,71.6,217.1,71.4,217.9,71.8z"/>
				</g>
				<g>
					<path class="st0" d="M193.7,57.8c-0.7-0.4-1.7-0.2-2.1,0.6c-0.4,0.7-0.2,1.7,0.6,2.1c0.7,0.4,1.7,0.2,2.1-0.6
						C194.7,59.2,194.4,58.3,193.7,57.8z"/>
				</g>
			</g>
			<g>
				<g>
					<path class="st0" d="M168.7,73.3c-0.1,0-0.1,0-0.2-0.1c-0.1-0.1,0-0.2,0.1-0.3l24.2-14c0.1-0.1,0.2,0,0.3,0.1s0,0.2-0.1,0.3
						l-24.2,14C168.8,73.3,168.8,73.3,168.7,73.3z"/>
				</g>
				<g>
					<path class="st0" d="M192.1,57.8c0.7-0.4,1.7-0.2,2.1,0.6c0.4,0.7,0.2,1.7-0.6,2.1c-0.7,0.4-1.7,0.2-2.1-0.6
						C191.1,59.2,191.4,58.3,192.1,57.8z"/>
				</g>
				<g>
					<path class="st0" d="M168,71.8c-0.7,0.4-1,1.4-0.6,2.1s1.4,1,2.1,0.6c0.7-0.4,1-1.4,0.6-2.1C169.6,71.6,168.7,71.4,168,71.8z"
						/>
				</g>
			</g>
		</g>
		<g>
			<g>
				<g>
					<path class="st0" d="M168.7,73.3h-0.1l-24.2-14c-0.1-0.1-0.1-0.2-0.1-0.3c0.1-0.1,0.2-0.1,0.3-0.1l24.2,14
						c0.1,0.1,0.1,0.2,0.1,0.3C168.9,73.3,168.8,73.3,168.7,73.3z"/>
				</g>
				<g>
					<path class="st0" d="M169.5,71.8c0.7,0.4,1,1.4,0.6,2.1s-1.4,1-2.1,0.6c-0.7-0.4-1-1.4-0.6-2.1
						C167.8,71.6,168.8,71.4,169.5,71.8z"/>
				</g>
				<g>
					<path class="st0" d="M145.3,57.8c-0.7-0.4-1.7-0.2-2.1,0.6c-0.4,0.7-0.2,1.7,0.6,2.1c0.7,0.4,1.7,0.2,2.1-0.6
						C146.3,59.2,146.1,58.3,145.3,57.8z"/>
				</g>
			</g>
		</g>
		<g>
			<g>
				<g>
					<path class="st0" d="M241.3,59.4c-0.1,0-0.2-0.1-0.2-0.2V31.3c0-0.1,0.1-0.2,0.2-0.2c0.1,0,0.2,0.1,0.2,0.2v27.9
						C241.5,59.3,241.4,59.4,241.3,59.4z"/>
				</g>
				<g>
					<path class="st0" d="M239.7,31.2c0-0.8,0.7-1.5,1.5-1.5c0.9,0,1.5,0.7,1.5,1.5c0,0.9-0.7,1.5-1.5,1.5
						C240.4,32.8,239.7,32.1,239.7,31.2z"/>
				</g>
				<g>
					<path class="st0" d="M239.7,59.2c0,0.9,0.7,1.5,1.5,1.5c0.9,0,1.5-0.7,1.5-1.5s-0.7-1.5-1.5-1.5
						C240.4,57.6,239.7,58.3,239.7,59.2z"/>
				</g>
			</g>
			<g>
				<g>
					<path class="st0" d="M265.4,73.3h-0.1l-24.2-14c-0.1-0.1-0.1-0.2-0.1-0.3c0.1-0.1,0.2-0.1,0.3-0.1l24.2,14
						c0.1,0.1,0.1,0.2,0.1,0.3C265.6,73.3,265.5,73.3,265.4,73.3z"/>
				</g>
				<g>
					<path class="st0" d="M240.5,60.5c-0.7-0.4-1-1.4-0.6-2.1c0.4-0.7,1.4-1,2.1-0.6c0.7,0.4,1,1.4,0.6,2.1
						C242.2,60.7,241.2,60.9,240.5,60.5z"/>
				</g>
				<g>
					<path class="st0" d="M264.7,74.5c0.7,0.4,1.7,0.2,2.1-0.6c0.4-0.7,0.2-1.7-0.6-2.1c-0.7-0.4-1.7-0.2-2.1,0.6
						C263.7,73.1,263.9,74,264.7,74.5z"/>
				</g>
			</g>
			<g>
				<g>
					<path class="st0" d="M265.4,73.3c-0.1,0-0.1,0-0.2-0.1s0-0.2,0.1-0.3l24.2-14c0.1-0.1,0.2,0,0.3,0.1c0.1,0.1,0,0.2-0.1,0.3
						L265.4,73.3C265.5,73.3,265.5,73.3,265.4,73.3z"/>
				</g>
				<g>
					<path class="st0" d="M266.2,74.5c-0.7,0.4-1.7,0.2-2.1-0.6c-0.4-0.7-0.2-1.7,0.6-2.1c0.7-0.4,1.7-0.2,2.1,0.6
						C267.2,73.1,266.9,74,266.2,74.5z"/>
				</g>
				<g>
					<path class="st0" d="M290.4,60.5c0.7-0.4,1-1.4,0.6-2.1c-0.4-0.7-1.4-1-2.1-0.6s-1,1.4-0.6,2.1
						C288.7,60.7,289.6,60.9,290.4,60.5z"/>
				</g>
			</g>
		</g>
		<g>
			<g>
				<g>
					<path class="st0" d="M241.3,59.4c-0.1,0-0.2-0.1-0.2-0.2v-28c0-0.1,0.1-0.2,0.2-0.2c0.1,0,0.2,0.1,0.2,0.2v27.9
						C241.5,59.3,241.4,59.4,241.3,59.4z"/>
				</g>
				<g>
					<path class="st0" d="M239.7,31.2c0-0.8,0.7-1.5,1.5-1.5s1.5,0.7,1.5,1.5c0,0.9-0.7,1.5-1.5,1.5
						C240.4,32.8,239.7,32.1,239.7,31.2z"/>
				</g>
				<g>
					<path class="st0" d="M239.7,59.2c0,0.8,0.7,1.5,1.5,1.5s1.5-0.7,1.5-1.5s-0.7-1.5-1.5-1.5C240.4,57.6,239.7,58.3,239.7,59.2z"
						/>
				</g>
			</g>
			<g>
				<g>
					<path class="st0" d="M241.3,31.4h-0.1l-24.2-14c-0.1-0.1-0.1-0.2-0.1-0.3c0.1-0.1,0.2-0.1,0.3-0.1l24.2,14
						c0.1,0.1,0.1,0.2,0.1,0.3C241.4,31.4,241.3,31.4,241.3,31.4z"/>
				</g>
				<g>
					<path class="st0" d="M242,29.9c0.7,0.4,1,1.4,0.6,2.1s-1.4,1-2.1,0.6c-0.7-0.4-1-1.4-0.6-2.1C240.4,29.7,241.3,29.5,242,29.9z"
						/>
				</g>
				<g>
					<path class="st0" d="M217.9,16c-0.7-0.4-1.7-0.2-2.1,0.6c-0.4,0.7-0.2,1.7,0.6,2.1c0.7,0.4,1.7,0.2,2.1-0.6
						C218.8,17.3,218.6,16.4,217.9,16z"/>
				</g>
			</g>
			<g>
				<g>
					<path class="st0" d="M192.9,31.4c-0.1,0-0.1,0-0.2-0.1c-0.1-0.1,0-0.2,0.1-0.3L217,17c0.1-0.1,0.2,0,0.3,0.1s0,0.2-0.1,0.3
						l-24.2,14H192.9z"/>
				</g>
				<g>
					<path class="st0" d="M216.3,16c0.7-0.4,1.7-0.2,2.1,0.6c0.4,0.7,0.2,1.7-0.6,2.1c-0.7,0.4-1.7,0.2-2.1-0.6
						C215.3,17.3,215.6,16.4,216.3,16z"/>
				</g>
				<g>
					<path class="st0" d="M192.1,29.9c-0.7,0.4-1,1.4-0.6,2.1s1.4,1,2.1,0.6c0.7-0.4,1-1.4,0.6-2.1
						C193.8,29.7,192.9,29.5,192.1,29.9z"/>
				</g>
			</g>
			<g>
				<g>
					<path class="st0" d="M192.9,59.4c-0.1,0-0.2-0.1-0.2-0.2V31.3c0-0.1,0.1-0.2,0.2-0.2c0.1,0,0.2,0.1,0.2,0.2v27.9
						C193.1,59.3,193,59.4,192.9,59.4z"/>
				</g>
				<g>
					<path class="st0" d="M191.4,31.2c0-0.8,0.7-1.5,1.5-1.5s1.5,0.7,1.5,1.5c0,0.9-0.7,1.5-1.5,1.5
						C192.1,32.8,191.4,32.1,191.4,31.2z"/>
				</g>
				<g>
					<path class="st0" d="M191.4,59.2c0,0.9,0.7,1.5,1.5,1.5s1.5-0.7,1.5-1.5s-0.7-1.5-1.5-1.5C192.1,57.6,191.4,58.3,191.4,59.2z"
						/>
				</g>
			</g>
			<g>
				<g>
					<path class="st0" d="M217.1,73.3H217l-24.2-14c-0.1-0.1-0.1-0.2-0.1-0.3c0.1-0.1,0.2-0.1,0.3-0.1l24.2,14
						c0.1,0.1,0.1,0.2,0.1,0.3C217.2,73.3,217.2,73.3,217.1,73.3z"/>
				</g>
				<g>
					<path class="st0" d="M192.1,60.5c-0.7-0.4-1-1.4-0.6-2.1c0.4-0.7,1.4-1,2.1-0.6c0.7,0.4,1,1.4,0.6,2.1
						C193.8,60.7,192.9,60.9,192.1,60.5z"/>
				</g>
				<g>
					<path class="st0" d="M216.3,74.5c0.7,0.4,1.7,0.2,2.1-0.6c0.4-0.7,0.2-1.7-0.6-2.1c-0.7-0.4-1.7-0.2-2.1,0.6
						C215.3,73.1,215.6,74,216.3,74.5z"/>
				</g>
			</g>
			<g>
				<g>
					<path class="st0" d="M217.1,73.3c-0.1,0-0.1,0-0.2-0.1c-0.1-0.1,0-0.2,0.1-0.3l24.2-14c0.1-0.1,0.2,0,0.3,0.1s0,0.2-0.1,0.3
						l-24.2,14C217.2,73.3,217.1,73.3,217.1,73.3z"/>
				</g>
				<g>
					<path class="st0" d="M217.9,74.5c-0.7,0.4-1.7,0.2-2.1-0.6c-0.4-0.7-0.2-1.7,0.6-2.1c0.7-0.4,1.7-0.2,2.1,0.6
						C218.8,73.1,218.6,74,217.9,74.5z"/>
				</g>
				<g>
					<path class="st0" d="M242,60.5c0.7-0.4,1-1.4,0.6-2.1c-0.4-0.7-1.4-1-2.1-0.6c-0.7,0.4-1,1.4-0.6,2.1
						C240.4,60.7,241.3,60.9,242,60.5z"/>
				</g>
			</g>
		</g>
		<g>
			<g>
				<g>
					<path class="st0" d="M192.9,59.4c-0.1,0-0.2-0.1-0.2-0.2v-28c0-0.1,0.1-0.2,0.2-0.2c0.1,0,0.2,0.1,0.2,0.2v27.9
						C193.1,59.3,193,59.4,192.9,59.4z"/>
				</g>
				<g>
					<path class="st0" d="M191.4,31.2c0-0.8,0.7-1.5,1.5-1.5c0.9,0,1.5,0.7,1.5,1.5c0,0.9-0.7,1.5-1.5,1.5
						C192.1,32.8,191.4,32.1,191.4,31.2z"/>
				</g>
				<g>
					<path class="st0" d="M191.4,59.2c0,0.8,0.7,1.5,1.5,1.5c0.9,0,1.5-0.7,1.5-1.5s-0.7-1.5-1.5-1.5
						C192.1,57.6,191.4,58.3,191.4,59.2z"/>
				</g>
			</g>
			<g>
				<g>
					<path class="st0" d="M192.9,31.4h-0.1l-24.2-14c-0.1-0.1-0.1-0.2-0.1-0.3c0.1-0.1,0.2-0.1,0.3-0.1L193,31
						c0.1,0.1,0.1,0.2,0.1,0.3C193,31.4,193,31.4,192.9,31.4z"/>
				</g>
				<g>
					<path class="st0" d="M193.7,29.9c0.7,0.4,1,1.4,0.6,2.1s-1.4,1-2.1,0.6c-0.7-0.4-1-1.4-0.6-2.1C192,29.7,192.9,29.5,193.7,29.9
						z"/>
				</g>
				<g>
					<path class="st0" d="M169.5,16c-0.7-0.4-1.7-0.2-2.1,0.6c-0.4,0.7-0.2,1.7,0.6,2.1s1.7,0.2,2.1-0.6
						C170.5,17.3,170.2,16.4,169.5,16z"/>
				</g>
			</g>
			<g>
				<g>
					<path class="st0" d="M144.5,31.4c-0.1,0-0.1,0-0.2-0.1c-0.1-0.1,0-0.2,0.1-0.3l24.2-14c0.1-0.1,0.2,0,0.3,0.1s0,0.2-0.1,0.3
						l-24.2,14C144.6,31.4,144.6,31.4,144.5,31.4z"/>
				</g>
				<g>
					<path class="st0" d="M168,16c0.7-0.4,1.7-0.2,2.1,0.6c0.4,0.7,0.2,1.7-0.6,2.1c-0.7,0.4-1.7,0.2-2.1-0.6
						C167,17.3,167.2,16.4,168,16z"/>
				</g>
				<g>
					<path class="st0" d="M143.8,29.9c-0.7,0.4-1,1.4-0.6,2.1s1.4,1,2.1,0.6c0.7-0.4,1-1.4,0.6-2.1
						C145.5,29.7,144.5,29.5,143.8,29.9z"/>
				</g>
			</g>
			<g>
				<g>
					<path class="st0" d="M144.5,59.4c-0.1,0-0.2-0.1-0.2-0.2V31.3c0-0.1,0.1-0.2,0.2-0.2c0.1,0,0.2,0.1,0.2,0.2v27.9
						C144.8,59.3,144.7,59.4,144.5,59.4z"/>
				</g>
				<g>
					<path class="st0" d="M143,31.2c0-0.8,0.7-1.5,1.5-1.5s1.5,0.7,1.5,1.5c0,0.9-0.7,1.5-1.5,1.5C143.7,32.8,143,32.1,143,31.2z"/>
				</g>
				<g>
					<path class="st0" d="M143,59.2c0,0.9,0.7,1.5,1.5,1.5s1.5-0.7,1.5-1.5s-0.7-1.5-1.5-1.5C143.7,57.6,143,58.3,143,59.2z"/>
				</g>
			</g>
			<g>
				<g>
					<path class="st0" d="M168.7,73.3h-0.1l-24.2-14c-0.1-0.1-0.1-0.2-0.1-0.3c0.1-0.1,0.2-0.1,0.3-0.1l24.2,14
						c0.1,0.1,0.1,0.2,0.1,0.3C168.9,73.3,168.8,73.3,168.7,73.3z"/>
				</g>
				<g>
					<path class="st0" d="M143.8,60.5c-0.7-0.4-1-1.4-0.6-2.1c0.4-0.7,1.4-1,2.1-0.6c0.7,0.4,1,1.4,0.6,2.1
						C145.5,60.7,144.5,60.9,143.8,60.5z"/>
				</g>
				<g>
					<path class="st0" d="M168,74.5c0.7,0.4,1.7,0.2,2.1-0.6c0.4-0.7,0.2-1.7-0.6-2.1c-0.7-0.4-1.7-0.2-2.1,0.6
						C167,73.1,167.2,74,168,74.5z"/>
				</g>
			</g>
			<g>
				<g>
					<path class="st0" d="M168.7,73.3c-0.1,0-0.1,0-0.2-0.1c-0.1-0.1,0-0.2,0.1-0.3l24.2-14c0.1-0.1,0.2,0,0.3,0.1s0,0.2-0.1,0.3
						l-24.2,14C168.8,73.3,168.8,73.3,168.7,73.3z"/>
				</g>
				<g>
					<path class="st0" d="M169.5,74.5c-0.7,0.4-1.7,0.2-2.1-0.6c-0.4-0.7-0.2-1.7,0.6-2.1c0.7-0.4,1.7-0.2,2.1,0.6
						C170.5,73.1,170.2,74,169.5,74.5z"/>
				</g>
				<g>
					<path class="st0" d="M193.7,60.5c0.7-0.4,1-1.4,0.6-2.1c-0.4-0.7-1.4-1-2.1-0.6c-0.7,0.4-1,1.4-0.6,2.1
						C192,60.7,192.9,60.9,193.7,60.5z"/>
				</g>
			</g>
		</g>
		<g>
			<g>
				<g>
					<path class="st0" d="M144.6,59.4c-0.1,0-0.2-0.1-0.2-0.2v-28c0-0.1,0.1-0.2,0.2-0.2c0.1,0,0.2,0.1,0.2,0.2v27.9
						C144.8,59.3,144.7,59.4,144.6,59.4z"/>
				</g>
				<g>
					<path class="st0" d="M143,31.2c0-0.8,0.7-1.5,1.5-1.5s1.5,0.7,1.5,1.5c0,0.9-0.7,1.5-1.5,1.5C143.7,32.8,143,32.1,143,31.2z"/>
				</g>
				<g>
					<path class="st0" d="M143,59.2c0,0.8,0.7,1.5,1.5,1.5s1.5-0.7,1.5-1.5s-0.7-1.5-1.5-1.5C143.7,57.6,143,58.3,143,59.2z"/>
				</g>
			</g>
			<g>
				<g>
					<path class="st0" d="M144.6,31.4h-0.1l-24.2-14c-0.1-0.1-0.1-0.2-0.1-0.3c0.1-0.1,0.2-0.1,0.3-0.1l24.2,14
						c0.1,0.1,0.1,0.2,0.1,0.3C144.7,31.4,144.6,31.4,144.6,31.4z"/>
				</g>
				<g>
					<path class="st0" d="M145.3,29.9c0.7,0.4,1,1.4,0.6,2.1s-1.4,1-2.1,0.6c-0.7-0.4-1-1.4-0.6-2.1
						C143.6,29.7,144.6,29.5,145.3,29.9z"/>
				</g>
				<g>
					<path class="st0" d="M121.1,16c-0.7-0.4-1.7-0.2-2.1,0.6c-0.4,0.7-0.2,1.7,0.6,2.1c0.7,0.4,1.7,0.2,2.1-0.6
						S121.9,16.4,121.1,16z"/>
				</g>
			</g>
			<g>
				<g>
					<path class="st0" d="M96.2,31.4c-0.1,0-0.1,0-0.2-0.1s0-0.2,0.1-0.3l24.2-14c0.1-0.1,0.2,0,0.3,0.1c0.1,0.1,0,0.2-0.1,0.3
						l-24.2,14H96.2z"/>
				</g>
				<g>
					<path class="st0" d="M119.6,16c0.7-0.4,1.7-0.2,2.1,0.6c0.4,0.7,0.2,1.7-0.6,2.1s-1.7,0.2-2.1-0.6S118.9,16.4,119.6,16z"/>
				</g>
				<g>
					<path class="st0" d="M95.4,29.9c-0.7,0.4-1,1.4-0.6,2.1s1.4,1,2.1,0.6s1-1.4,0.6-2.1C97.1,29.7,96.2,29.5,95.4,29.9z"/>
				</g>
			</g>
		</g>
		<g>
			<g>
				<g>
					<path class="st0" d="M216.9,2.3v15c0,0.1,0.1,0.2,0.2,0.2c0.1,0,0.2-0.1,0.2-0.2v-15C217.3,2.3,216.9,2.3,216.9,2.3z"/>
				</g>
				<g>
					<path class="st0" d="M215.5,17.3c0,0.8,0.7,1.5,1.5,1.5c0.9,0,1.5-0.7,1.5-1.5s-0.7-1.5-1.5-1.5
						C216.2,15.7,215.5,16.4,215.5,17.3z"/>
				</g>
			</g>
			<g>
				<g>
					<path class="st0" d="M241.3,31.4h-0.1l-24.2-14c-0.1-0.1-0.1-0.2-0.1-0.3c0.1-0.1,0.2-0.1,0.3-0.1l24.2,14
						c0.1,0.1,0.1,0.2,0.1,0.3C241.4,31.4,241.3,31.4,241.3,31.4z"/>
				</g>
				<g>
					<path class="st0" d="M216.3,18.6c-0.7-0.4-1-1.4-0.6-2.1c0.4-0.7,1.4-1,2.1-0.6c0.7,0.4,1,1.4,0.6,2.1
						C218,18.8,217.1,19,216.3,18.6z"/>
				</g>
				<g>
					<path class="st0" d="M240.5,32.6c0.7,0.4,1.7,0.2,2.1-0.6c0.4-0.7,0.2-1.7-0.6-2.1c-0.7-0.4-1.7-0.2-2.1,0.6
						C239.5,31.2,239.8,32.2,240.5,32.6z"/>
				</g>
			</g>
		</g>
		<g>
			<g>
				<g>
					<path class="st0" d="M216.9,2.3v15c0,0.1,0.1,0.2,0.2,0.2c0.1,0,0.2-0.1,0.2-0.2v-15C217.3,2.3,216.9,2.3,216.9,2.3z"/>
				</g>
				<g>
					<path class="st0" d="M215.5,17.3c0,0.8,0.7,1.5,1.5,1.5s1.5-0.7,1.5-1.5c0-0.9-0.7-1.5-1.5-1.5
						C216.2,15.7,215.5,16.4,215.5,17.3z"/>
				</g>
			</g>
			<g>
				<g>
					<path class="st0" d="M168.5,2.3v15c0,0.1,0.1,0.2,0.2,0.2c0.1,0,0.2-0.1,0.2-0.2v-15C168.9,2.3,168.5,2.3,168.5,2.3z"/>
				</g>
				<g>
					<path class="st0" d="M167.2,17.3c0,0.8,0.7,1.5,1.5,1.5s1.5-0.7,1.5-1.5s-0.7-1.5-1.5-1.5C167.9,15.7,167.2,16.4,167.2,17.3z"
						/>
				</g>
			</g>
			<g>
				<g>
					<path class="st0" d="M192.9,31.4h-0.1l-24.2-14c-0.1-0.1-0.1-0.2-0.1-0.3c0.1-0.1,0.2-0.1,0.3-0.1L193,31
						c0.1,0.1,0.1,0.2,0.1,0.3C193,31.4,193,31.4,192.9,31.4z"/>
				</g>
				<g>
					<path class="st0" d="M168,18.6c-0.7-0.4-1-1.4-0.6-2.1c0.4-0.7,1.4-1,2.1-0.6c0.7,0.4,1,1.4,0.6,2.1
						C169.6,18.8,168.7,19,168,18.6z"/>
				</g>
				<g>
					<path class="st0" d="M192.1,32.6c0.7,0.4,1.7,0.2,2.1-0.6c0.4-0.7,0.2-1.7-0.6-2.1c-0.7-0.4-1.7-0.2-2.1,0.6
						C191.1,31.2,191.4,32.2,192.1,32.6z"/>
				</g>
			</g>
			<g>
				<g>
					<path class="st0" d="M192.9,31.4c-0.1,0-0.1,0-0.2-0.1c-0.1-0.1,0-0.2,0.1-0.3L217,17c0.1-0.1,0.2,0,0.3,0.1s0,0.2-0.1,0.3
						l-24.2,14H192.9z"/>
				</g>
				<g>
					<path class="st0" d="M193.7,32.6c-0.7,0.4-1.7,0.2-2.1-0.6c-0.4-0.7-0.2-1.7,0.6-2.1c0.7-0.4,1.7-0.2,2.1,0.6
						C194.7,31.2,194.4,32.2,193.7,32.6z"/>
				</g>
				<g>
					<path class="st0" d="M217.9,18.6c0.7-0.4,1-1.4,0.6-2.1c-0.4-0.7-1.4-1-2.1-0.6c-0.7,0.4-1,1.4-0.6,2.1
						C216.2,18.8,217.1,19,217.9,18.6z"/>
				</g>
			</g>
		</g>
		<g>
			<g>
				<g>
					<path class="st0" d="M168.5,2.3v15c0,0.1,0.1,0.2,0.2,0.2s0.2-0.1,0.2-0.2v-15C168.9,2.3,168.5,2.3,168.5,2.3z"/>
				</g>
				<g>
					<path class="st0" d="M167.2,17.3c0,0.8,0.7,1.5,1.5,1.5s1.5-0.7,1.5-1.5c0-0.9-0.7-1.5-1.5-1.5
						C167.9,15.7,167.2,16.4,167.2,17.3z"/>
				</g>
			</g>
			<g>
				<g>
					<path class="st0" d="M120.2,2.3v15c0,0.1,0.1,0.2,0.2,0.2s0.2-0.1,0.2-0.2v-15C120.6,2.3,120.2,2.3,120.2,2.3z"/>
				</g>
				<g>
					<path class="st0" d="M118.8,17.3c0,0.8,0.7,1.5,1.5,1.5s1.5-0.7,1.5-1.5s-0.7-1.5-1.5-1.5C119.5,15.7,118.8,16.4,118.8,17.3z"
						/>
				</g>
			</g>
			<g>
				<g>
					<path class="st0" d="M144.6,31.4h-0.1l-24.2-14c-0.1-0.1-0.1-0.2-0.1-0.3c0.1-0.1,0.2-0.1,0.3-0.1l24.2,14
						c0.1,0.1,0.1,0.2,0.1,0.3C144.7,31.4,144.6,31.4,144.6,31.4z"/>
				</g>
				<g>
					<path class="st0" d="M119.6,18.6c-0.7-0.4-1-1.4-0.6-2.1c0.4-0.7,1.4-1,2.1-0.6s1,1.4,0.6,2.1C121.3,18.8,120.3,19,119.6,18.6z
						"/>
				</g>
				<g>
					<path class="st0" d="M143.8,32.6c0.7,0.4,1.7,0.2,2.1-0.6s0.2-1.7-0.6-2.1c-0.7-0.4-1.7-0.2-2.1,0.6
						C142.8,31.2,143,32.2,143.8,32.6z"/>
				</g>
			</g>
			<g>
				<g>
					<path class="st0" d="M144.6,31.4c-0.1,0-0.1,0-0.2-0.1c-0.1-0.1,0-0.2,0.1-0.3l24.2-14c0.1-0.1,0.2,0,0.3,0.1s0,0.2-0.1,0.3
						l-24.2,14C144.6,31.4,144.6,31.4,144.6,31.4z"/>
				</g>
				<g>
					<path class="st0" d="M145.3,32.6c-0.7,0.4-1.7,0.2-2.1-0.6c-0.4-0.7-0.2-1.7,0.6-2.1c0.7-0.4,1.7-0.2,2.1,0.6
						C146.3,31.2,146.1,32.2,145.3,32.6z"/>
				</g>
				<g>
					<path class="st0" d="M169.5,18.6c0.7-0.4,1-1.4,0.6-2.1c-0.4-0.7-1.4-1-2.1-0.6c-0.7,0.4-1,1.4-0.6,2.1
						C167.8,18.8,168.8,19,169.5,18.6z"/>
				</g>
			</g>
		</g>
		<g>
			<g>
				<g>
					<path class="st0" d="M120.2,2.3v15c0,0.1,0.1,0.2,0.2,0.2s0.2-0.1,0.2-0.2v-15C120.6,2.3,120.2,2.3,120.2,2.3z"/>
				</g>
				<g>
					<path class="st0" d="M118.8,17.3c0,0.8,0.7,1.5,1.5,1.5s1.5-0.7,1.5-1.5c0-0.9-0.7-1.5-1.5-1.5
						C119.5,15.7,118.8,16.4,118.8,17.3z"/>
				</g>
			</g>
			<g>
				<g>
					<path class="st0" d="M96.2,31.4c-0.1,0-0.1,0-0.2-0.1s0-0.2,0.1-0.3l24.2-14c0.1-0.1,0.2,0,0.3,0.1c0.1,0.1,0,0.2-0.1,0.3
						l-24.2,14H96.2z"/>
				</g>
				<g>
					<path class="st0" d="M97,32.6c-0.7,0.4-1.7,0.2-2.1-0.6c-0.4-0.7-0.2-1.7,0.6-2.1c0.7-0.4,1.7-0.2,2.1,0.6
						C98,31.2,97.7,32.2,97,32.6z"/>
				</g>
				<g>
					<path class="st0" d="M121.1,18.6c0.7-0.4,1-1.4,0.6-2.1c-0.4-0.7-1.4-1-2.1-0.6s-1,1.4-0.6,2.1C119.5,18.8,120.4,19,121.1,18.6
						z"/>
				</g>
			</g>
		</g>
	</g>
</g>
</svg>
